<?xml version="1.0" encoding="UTF-8" standalone="no"?>
<!-- Creator: CorelDRAW -->

<svg
   xml:space="preserve"
   width="83.995384mm"
   height="70.489403mm"
   style="fill-rule:evenodd;image-rendering:optimizeQuality;shape-rendering:geometricPrecision;text-rendering:geometricPrecision"
   viewBox="0 0 83995.384 70489.403"
   id="svg2"
   version="1.1"
   inkscape:version="1.4.2 (f4327f4, 2025-05-13)"
   sodipodi:docname="Spgs-Dehnungs-Kurve_Streckgrenze.en.svg"
   xmlns:inkscape="http://www.inkscape.org/namespaces/inkscape"
   xmlns:sodipodi="http://sodipodi.sourceforge.net/DTD/sodipodi-0.dtd"
   xmlns="http://www.w3.org/2000/svg"
   xmlns:svg="http://www.w3.org/2000/svg"
   xmlns:rdf="http://www.w3.org/1999/02/22-rdf-syntax-ns#"
   xmlns:cc="http://creativecommons.org/ns#"
   xmlns:dc="http://purl.org/dc/elements/1.1/"><metadata
     id="metadata157"><rdf:RDF><cc:Work
         rdf:about=""><dc:format>image/svg+xml</dc:format><dc:type
           rdf:resource="http://purl.org/dc/dcmitype/StillImage" /><dc:title /></cc:Work></rdf:RDF></metadata><sodipodi:namedview
     pagecolor="#ffffff"
     bordercolor="#666666"
     borderopacity="1"
     objecttolerance="10"
     gridtolerance="10"
     guidetolerance="10"
     inkscape:pageopacity="0"
     inkscape:pageshadow="2"
     inkscape:window-width="1920"
     inkscape:window-height="1009"
     id="namedview155"
     showgrid="false"
     inkscape:zoom="2.0931757"
     inkscape:cx="89.099065"
     inkscape:cy="145.95048"
     inkscape:window-x="-8"
     inkscape:window-y="-8"
     inkscape:window-maximized="1"
     inkscape:current-layer="Ebene 1"
     fit-margin-top="0"
     fit-margin-left="0"
     fit-margin-right="0"
     fit-margin-bottom="0"
     showborder="false"
     inkscape:showpageshadow="2"
     inkscape:pagecheckerboard="0"
     inkscape:deskcolor="#d1d1d1"
     inkscape:document-units="mm" /><defs
     id="defs4"><marker
       inkscape:stockid="Arrow1Mstart"
       orient="auto"
       refY="0"
       refX="0"
       id="Arrow1Mstart"
       style="overflow:visible"
       inkscape:isstock="true"><path
         id="path900"
         d="M 0,0 5,-5 -12.5,0 5,5 Z"
         style="fill:#000000;fill-opacity:1;fill-rule:evenodd;stroke:#000000;stroke-width:1.00000003pt;stroke-opacity:1"
         transform="matrix(0.4,0,0,0.4,4,0)"
         inkscape:connector-curvature="0" /></marker><marker
       inkscape:stockid="Arrow2Lstart"
       orient="auto"
       refY="0"
       refX="0"
       id="Arrow2Lstart"
       style="overflow:visible"
       inkscape:isstock="true"><path
         id="path912"
         style="fill:#000000;fill-opacity:1;fill-rule:evenodd;stroke:#000000;stroke-width:0.625;stroke-linejoin:round;stroke-opacity:1"
         d="M 8.7185878,4.0337352 -2.2072895,0.01601326 8.7185884,-4.0017078 c -1.7454984,2.3720609 -1.7354408,5.6174519 -6e-7,8.035443 z"
         transform="matrix(1.1,0,0,1.1,1.1,0)"
         inkscape:connector-curvature="0" /></marker><marker
       inkscape:stockid="Arrow1Mend"
       orient="auto"
       refY="0"
       refX="0"
       id="Arrow1Mend"
       style="overflow:visible"
       inkscape:isstock="true"><path
         id="path903"
         d="M 0,0 5,-5 -12.5,0 5,5 Z"
         style="fill:#000000;fill-opacity:1;fill-rule:evenodd;stroke:#000000;stroke-width:1.00000003pt;stroke-opacity:1"
         transform="matrix(-0.4,0,0,-0.4,-4,0)"
         inkscape:connector-curvature="0" /></marker><marker
       inkscape:stockid="Arrow2Lend"
       orient="auto"
       refY="0"
       refX="0"
       id="Arrow2Lend"
       style="overflow:visible"
       inkscape:isstock="true"><path
         id="path915"
         style="fill:#1f1a17;fill-opacity:1;fill-rule:evenodd;stroke:none;stroke-width:0.625;stroke-linejoin:round;stroke-opacity:1"
         d="M 8.7185878,4.0337352 -2.2072895,0.01601326 8.7185884,-4.0017078 c -1.7454984,2.3720609 -1.7354408,5.6174519 -6e-7,8.035443 z"
         transform="matrix(-1.1,0,0,-1.1,-1.1,0)"
         inkscape:connector-curvature="0" /></marker><style
       type="text/css"
       id="style6"><![CDATA[
    .str3 {stroke:#1F1A17;stroke-width:76}
    .str1 {stroke:#1F1A17;stroke-width:176}
    .str4 {stroke:#1F1A17;stroke-width:353}
    .str0 {stroke:#1F1A17;stroke-width:353}
    .str2 {stroke:#1F1A17;stroke-width:176;stroke-dasharray:1764 882}
    .fil1 {fill:none}
    .fil0 {fill:#1F1A17}
   ]]></style></defs><g
     id="Ebene 1"
     transform="translate(4301.3825,-11415.453)"><path
       class="fil1 str0"
       d="M 12030,78140 19030,43141"
       id="path19"
       inkscape:connector-curvature="0"
       style="fill:none;stroke:#1f1a17;stroke-width:353" /><path
       class="fil1 str1"
       d="M 46220,34140 H 10030"
       id="path21"
       inkscape:connector-curvature="0"
       style="fill:none;stroke:#1f1a17;stroke-width:176" /><path
       class="fil0"
       d="m 4530,33702 v -2021 h 895 c 181,0 317,19 411,55 94,36 168,100 225,192 56,92 84,194 84,305 0,143 -46,263 -140,362 -92,98 -236,161 -430,187 72,34 125,68 162,101 78,72 152,161 222,269 l 351,550 h -336 l -267,-421 c -78,-121 -143,-214 -194,-278 -50,-64 -95,-110 -135,-135 -40,-26 -80,-44 -122,-54 -30,-6 -80,-9 -149,-9 h -310 v 897 z m 267,-1129 h 575 c 122,0 218,-13 286,-38 69,-25 122,-66 157,-121 36,-56 54,-116 54,-181 0,-96 -34,-174 -104,-236 -69,-62 -179,-92 -329,-92 h -639 z"
       id="path23"
       inkscape:connector-curvature="0"
       style="fill:#1f1a17" /><path
       class="fil0"
       d="m 6587,34140 v -1097 h 166 v 153 c 35,-53 81,-97 138,-129 57,-33 122,-50 195,-50 81,0 148,17 200,51 52,34 89,81 110,142 87,-128 200,-193 339,-193 109,0 193,31 251,91 59,60 88,153 88,279 v 753 h -185 v -691 c 0,-75 -6,-128 -18,-161 -12,-33 -34,-59 -66,-79 -31,-20 -69,-30 -111,-30 -78,0 -141,25 -193,77 -50,51 -76,133 -76,246 v 638 h -186 v -713 c 0,-83 -15,-145 -46,-186 -30,-41 -79,-62 -148,-62 -53,0 -101,13 -145,41 -45,28 -77,68 -97,121 -20,53 -30,130 -30,230 v 569 z"
       id="path25"
       inkscape:connector-curvature="0"
       style="fill:#1f1a17" /><path
       class="fil0"
       d="m 4530,42526 v -2020 h 895 c 181,0 317,18 411,55 94,36 168,100 225,191 56,93 84,194 84,305 0,144 -46,264 -140,362 -92,99 -236,161 -430,188 72,34 125,67 162,101 78,71 152,161 222,268 l 351,550 h -336 l -267,-420 c -78,-121 -143,-214 -194,-278 -50,-65 -95,-110 -135,-135 -40,-26 -80,-44 -122,-54 -30,-6 -80,-10 -149,-10 h -310 v 897 z m 267,-1128 h 575 c 122,0 218,-13 286,-38 69,-26 122,-66 157,-122 36,-55 54,-115 54,-181 0,-95 -34,-174 -104,-235 -69,-62 -179,-93 -329,-93 h -639 z"
       id="path27"
       inkscape:connector-curvature="0"
       style="fill:#1f1a17" /><path
       class="fil0"
       d="m 4530,48161 v -2021 h 895 c 181,0 317,19 411,55 94,36 168,100 225,192 56,92 84,194 84,305 0,143 -46,263 -140,362 -92,98 -236,161 -430,187 72,34 125,68 162,101 78,72 152,161 222,269 l 351,550 h -336 l -267,-421 c -78,-121 -143,-214 -194,-278 -50,-64 -95,-110 -135,-135 -40,-26 -80,-44 -122,-54 -30,-6 -80,-9 -149,-9 h -310 v 897 z m 267,-1129 h 575 c 122,0 218,-13 286,-38 69,-25 122,-66 157,-121 36,-56 54,-116 54,-181 0,-96 -34,-174 -104,-236 -69,-62 -179,-92 -329,-92 h -639 z"
       id="path29"
       inkscape:connector-curvature="0"
       style="fill:#1f1a17" /><path
       class="fil0"
       d="m 78699.137,80573.859 -178,144 c -113,-86 -219,-129 -317,-129 -81,0 -140,22 -177,65 -37,43 -56,90 -56,139 0,65 28,118 83,161 55,43 136,64 242,64 14,0 37,0 69,-1 v 208 c -29,-1 -51,-2 -66,-2 -131,0 -222,26 -273,76 -51,51 -77,108 -77,171 0,65 26,120 77,165 52,44 113,67 184,67 129,0 250,-61 363,-181 l 178,150 c -147,156 -330,234 -548,234 -172,0 -300,-43 -385,-130 -84,-88 -127,-189 -127,-305 0,-166 81,-284 243,-354 -135,-77 -203,-182 -203,-316 0,-109 40,-207 120,-294 80,-87 203,-130 368,-130 190,0 349,66 480,198 z"
       id="path33"
       inkscape:connector-curvature="0"
       style="fill:#1f1a17" /><path
       class="fil1 str2"
       d="M 64030,78178 71030,43179"
       id="path57"
       inkscape:connector-curvature="0"
       style="fill:none;stroke:#1f1a17;stroke-width:176;stroke-dasharray:1764, 882" /><path
       class="fil1 str3"
       d="m 46669,32567 4000,-9009"
       id="path59"
       inkscape:connector-curvature="0"
       style="fill:none;stroke:#1f1a17;stroke-width:76" /><path
       class="fil1 str2"
       d="M 37230,78140 46030,34140"
       id="path113"
       inkscape:connector-curvature="0"
       style="fill:none;stroke:#1f1a17;stroke-width:176;stroke-dasharray:1764, 882" /><path
       class="fil1 str1"
       d="m 15031,63132 h 1938 v -9659"
       id="path119"
       inkscape:connector-curvature="0"
       style="fill:none;stroke:#1f1a17;stroke-width:176" /><path
       class="fil0"
       d="m 18243,60144 776,-2020 h 288 l 827,2020 z m 371,-238 h 1123 l -437,-1151 c -65,-172 -113,-312 -143,-419 -25,125 -61,254 -109,386 z"
       id="path121"
       inkscape:connector-curvature="0"
       style="fill:#1f1a17" /><path
       class="fil0"
       d="m 15144,66259 777,-2020 h 287 l 827,2020 z m 371,-238 h 1123 l -437,-1151 c -65,-172 -113,-312 -143,-419 -25,125 -61,254 -109,386 z"
       id="path125"
       inkscape:connector-curvature="0"
       style="fill:#1f1a17" /><path
       class="fil0"
       d="m 18175,64961 -178,143 c -113,-85 -219,-128 -317,-128 -81,0 -140,22 -177,65 -37,43 -56,90 -56,139 0,65 28,118 83,161 55,42 136,64 242,64 14,0 37,-1 69,-1 v 207 c -29,0 -51,-1 -66,-1 -131,0 -222,25 -273,76 -51,51 -77,107 -77,171 0,65 26,120 77,165 52,44 113,66 184,66 129,0 250,-60 363,-180 l 178,150 c -147,156 -330,234 -548,234 -172,0 -300,-43 -385,-131 -84,-87 -127,-188 -127,-304 0,-167 81,-285 243,-354 -135,-77 -203,-182 -203,-316 0,-109 40,-207 120,-294 80,-87 203,-131 368,-131 190,0 349,67 480,199 z"
       id="path127"
       inkscape:connector-curvature="0"
       style="fill:#1f1a17" /><path
       class="fil1 str1"
       d="m 22341,46139 c 0,-72 0,-72 0,0 z"
       id="path129"
       inkscape:connector-curvature="0"
       style="fill:none;stroke:#1f1a17;stroke-width:176" /><path
       class="fil1 str4"
       d="M 26038,46139 C 31930,31537 54426,30016 71031,43096"
       id="path131"
       inkscape:connector-curvature="0"
       style="fill:none;stroke:#1f1a17;stroke-width:353" /><path
       class="fil1 str1"
       d="m 19030,43141 -8971,-1"
       id="path133"
       inkscape:connector-curvature="0"
       style="fill:none;stroke:#1f1a17;stroke-width:176" /><path
       class="fil1 str1"
       d="m 26038,46139 -16098,1"
       id="path135"
       inkscape:connector-curvature="0"
       style="fill:none;stroke:#1f1a17;stroke-width:176" /><path
       class="fil0"
       d="m 7542,48479 192,24 c -30,113 -86,200 -168,262 -82,61 -187,93 -314,93 -161,0 -288,-50 -382,-149 -94,-98 -141,-237 -141,-416 0,-184 48,-328 142,-430 96,-102 219,-153 371,-153 146,0 266,50 359,150 93,100 140,241 140,422 0,11 -1,28 -1,50 h -819 c 7,120 41,213 103,276 61,65 137,97 229,97 68,0 126,-18 174,-54 49,-36 87,-93 115,-172 z m -611,-301 h 613 c -8,-92 -32,-161 -70,-207 -59,-72 -136,-108 -230,-108 -86,0 -158,29 -216,86 -58,57 -90,134 -97,229 z"
       id="path137"
       inkscape:connector-curvature="0"
       style="fill:#1f1a17" /><path
       class="fil0"
       d="m 7983,48833 v -1515 h 201 v 1336 h 746 v 179 z"
       id="path139"
       inkscape:connector-curvature="0"
       style="fill:#1f1a17" /><path
       class="fil0"
       d="m 7452,42762 192,24 c -30,112 -87,200 -168,262 -83,61 -187,92 -315,92 -160,0 -288,-49 -381,-148 -95,-99 -142,-237 -142,-416 0,-185 48,-328 143,-430 95,-102 218,-153 370,-153 147,0 267,50 360,150 93,100 139,241 139,422 0,11 0,28 -1,49 h -818 c 6,121 41,214 102,277 61,65 138,97 229,97 68,0 127,-18 175,-54 48,-36 86,-93 115,-172 z m -611,-301 h 613 c -8,-92 -32,-161 -70,-207 -60,-72 -137,-108 -231,-108 -85,0 -157,29 -215,86 -59,57 -91,134 -97,229 z"
       id="path141"
       inkscape:connector-curvature="0"
       style="fill:#1f1a17" /><path
       class="fil0"
       d="m 7907,43116 v -1515 h 201 v 622 h 788 v -622 h 200 v 1515 h -200 v -714 h -788 v 714 z"
       id="path143"
       inkscape:connector-curvature="0"
       style="fill:#1f1a17" /><path
       class="fil1 str4"
       d="m 19030,43229 247,2894 369,-1049 371,788 555,-862 121,918 666,-501 722,706 583,-1132 519,834 731,-306 268,604 334,-910 259,910 352,-993 903,1010"
       id="path153"
       inkscape:connector-curvature="0"
       style="fill:none;stroke:#1f1a17;stroke-width:353" /><path
       class="fil0"
       d="m 21949.061,58569.595 v 201 h -398 c 122,114 183,290.999 183,532 0,262 -67,455.001 -201,578.001 -133,124 -295,185 -487,185 -198,0 -362.001,-64 -490.001,-193 -129,-128 -193,-319.001 -193,-572.001 0,-259 67,-452.001 200,-577 134,-125 295.001,-187.001 483.001,-187.001 69,0 147,11 234,33.001 z m -907,172 c -120,0 -221,47 -302.001,140.999 -81,93 -122,234.001 -122,420.001 0,186.001 40,325.001 119,419.001 80.001,93 183.001,141 309.001,141 134,0 240,-49 318,-147 79,-98 117.999,-236 117.999,-415.001 0,-162 -35.999,-296.001 -107.999,-401.001 -72,-104.999 -183,-157.999 -332,-157.999 z"
       id="path123"
       inkscape:connector-curvature="0"
       style="fill:#1f1a17;fill-rule:evenodd;stroke-width:1.00000072;image-rendering:optimizeQuality;shape-rendering:geometricPrecision;text-rendering:geometricPrecision" /><g
       id="g6562"><g
         transform="translate(-4737.1559,-2770.7893)"
         id="g1195"><path
   class="fil0"
   d="m 6010.6764,19401.284 8.6507,-2021.012 274.0022,1.682 1053.8499,1590.776 7.1563,-1586.01 256.001,0.703 -8.6518,2020.011 -274.001,-0.681 -1053.8511,-1591.776 -7.1552,1587.009 z"
   id="path45"
   inkscape:connector-curvature="0"
   style="fill:#1f1a17" /><path
   class="fil0"
   d="m 7833.7182,19436.164 594.5748,-2086.692 198.001,0.77 -593.5747,2086.691 z"
   id="path47"
   inkscape:connector-curvature="0"
   style="fill:#1f1a17" /><path
   class="fil0"
   d="m 8803.6804,19403.037 6.2993,-1463.008 222.001,0.741 -1.7617,205.003 c 46.9175,-71.055 107.8512,-128.126 184.8,-172.215 75.9499,-43.089 162.9255,-64.19 259.9254,-64.302 109.0011,0.873 198.0278,23.769 267.0812,69.689 69.0522,44.92 117.1255,107.864 145.2196,188.831 116.8018,-170.135 267.7038,-255.311 453.7048,-254.527 145.001,0.831 256.048,41.702 334.141,121.612 77.094,80.91 116.238,204.865 115.434,372.866 l -3.833,1004.005 -247.002,-1.713 3.929,-921.005 c 0.885,-99.001 -7.199,-170.992 -23.25,-214.973 -16.05,-42.982 -45.092,-78.948 -87.123,-105.899 -42.03,-25.951 -92.046,-39.893 -149.046,-39.827 -103.002,-0.88 -187.962,33.218 -255.883,101.297 -67.9207,68.079 -103.794,177.121 -103.6185,328.121 l -4.0119,850.005 -248.001,-0.711 4.8945,-951.007 c -0.1279,-110 -20.2243,-192.976 -60.2882,-247.93 -40.0639,-54.953 -106.0976,-83.876 -198.0975,-83.77 -70,0.08 -133.979,18.156 -193.9371,54.226 -58.9582,36.069 -101.8954,90.118 -128.814,160.15 -27.9174,71.032 -40.7988,173.047 -41.6442,306.048 l -3.1177,759.005 z"
   id="path49"
   inkscape:connector-curvature="0"
   style="fill:#1f1a17" /><path
   class="fil0"
   d="m 11153.685,19405.305 7.299,-1463.009 222.001,0.742 -1.762,205.002 c 46.918,-71.055 107.851,-128.126 184.8,-172.215 75.95,-43.088 162.925,-65.19 259.926,-64.302 109.001,0.873 198.027,23.769 267.08,68.689 69.052,44.92 117.126,108.864 145.22,189.832 116.803,-170.136 267.704,-255.312 453.705,-254.528 145.001,0.831 256.047,40.702 334.141,121.612 77.095,80.91 116.239,204.865 115.433,371.866 l -3.832,1005.005 -247.002,-1.713 3.929,-921.005 c -0.116,-100 -7.198,-170.992 -23.25,-214.973 -16.051,-43.982 -45.091,-78.948 -87.123,-105.899 -42.031,-26.951 -92.046,-39.893 -149.047,-40.827 -103,0.12 -187.961,34.219 -255.882,102.298 -68.921,68.08 -103.794,177.12 -103.618,328.12 l -4.012,850.005 -248.001,-0.711 3.894,-951.005 c 0.871,-111.001 -19.224,-192.978 -59.289,-248.932 -40.064,-54.953 -106.096,-82.876 -198.096,-82.769 -70.002,-0.919 -133.981,17.155 -193.939,53.225 -58.957,37.069 -101.894,91.119 -128.812,161.15 -27.918,71.032 -41.799,173.049 -41.645,306.049 l -3.117,759.004 z"
   id="path51"
   inkscape:connector-curvature="0"
   style="fill:#1f1a17" /><path
   class="fil0"
   d="m 13358.514,18396.741 c 4.938,-53.005 26.878,-105.031 64.817,-157.075 57.908,-79.067 153.807,-166.179 286.697,-261.333 132.889,-95.155 210.818,-156.246 235.786,-184.275 34.956,-37.04 51.911,-76.06 51.866,-115.06 -0.05,-44 -15.094,-80.983 -47.128,-109.945 -32.033,-27.963 -80.05,-42.907 -142.05,-42.835 -61,0.07 -105.988,10.123 -135.963,32.158 -29.975,21.035 -54.926,63.064 -73.855,124.086 l -208.027,-22.758 c 26.881,-102.032 72.794,-177.085 138.738,-225.162 65.944,-48.077 160.918,-71.187 283.919,-70.33 139,-0.162 240.032,27.721 304.096,82.647 65.063,53.924 97.139,119.887 97.23,197.887 -0.91,77.001 -27.825,150.032 -82.745,219.096 -40.941,51.048 -135.85,129.158 -283.728,234.33 -75.935,56.088 -129.884,100.151 -162.845,133.189 l 532.003,2.382 -0.806,167.001 z"
   id="path53"
   inkscape:connector-curvature="0"
   style="fill:#1f1a17" /><text
   xml:space="preserve"
   style="font-style:normal;font-variant:normal;font-weight:normal;font-stretch:normal;font-size:4233.33349609px;line-height:125%;font-family:Arial;-inkscape-font-specification:Arial;letter-spacing:0px;word-spacing:0px;fill:#000000;fill-opacity:1;stroke:none;stroke-width:264.58334351px;stroke-linecap:butt;stroke-linejoin:miter;stroke-opacity:1"
   x="3004.7444"
   y="19407.434"
   id="text1186"><tspan
     sodipodi:role="line"
     id="tspan1184"
     x="3004.7444"
     y="19407.434"
     style="font-size:2822.22216797px;stroke-width:264.58334351px">in</tspan></text>
</g><path
         class="fil0"
         d="m -2598.0186,15050.46 v 215.874 h -427.4517 c 131.028,122.436 196.5419,312.533 196.5419,571.366 0,281.389 -71.9579,488.672 -215.8738,620.774 -142.842,133.175 -316.8299,198.69 -523.0377,198.69 -212.6519,0 -388.7889,-68.736 -526.2608,-207.281 -138.5459,-137.473 -207.2818,-342.608 -207.2818,-614.33 0,-278.166 71.9579,-485.449 214.7999,-619.697 143.9158,-134.251 316.8308,-200.839 518.7427,-200.839 74.1058,0 157.8779,11.813 251.3159,35.443 z m -974.1174,184.728 c -128.8799,0 -237.3538,50.478 -324.3488,151.433 -86.994,99.881 -131.0279,251.316 -131.0279,451.079 0,199.766 42.9599,349.052 127.8058,450.008 85.9211,99.882 196.543,151.434 331.867,151.434 143.9159,0 257.7597,-52.627 341.5317,-157.877 84.8461,-105.252 126.7309,-253.465 126.7309,-445.712 0,-173.988 -38.6629,-317.905 -115.9909,-430.674 -77.328,-112.769 -196.5418,-169.691 -356.5678,-169.691 z"
         id="path1838"
         inkscape:connector-curvature="0"
         style="fill:#1f1a17;fill-rule:evenodd;stroke-width:1.00000072;image-rendering:optimizeQuality;shape-rendering:geometricPrecision;text-rendering:geometricPrecision" /></g><path
       style="fill:none;fill-rule:evenodd;stroke:#000000;stroke-width:396.875;stroke-linecap:butt;stroke-linejoin:miter;stroke-miterlimit:4;stroke-dasharray:none;stroke-opacity:1;marker-start:url(#Arrow1Mstart);marker-end:url(#Arrow1Mend)"
       d="M 12030,12197.567 V 78140 h 65954.073"
       id="path1840"
       inkscape:connector-curvature="0" /><text
       xml:space="preserve"
       style="font-size:2822.22px;line-height:1.3;font-family:Arial;-inkscape-font-specification:Arial;text-align:start;letter-spacing:0px;writing-mode:lr-tb;direction:ltr;text-anchor:start;fill:#000000;stroke-width:2000"
       x="68633.055"
       y="40235.301"
       id="text1"><tspan
         sodipodi:role="line"
         id="tspan1"
         style="font-size:2822.22px;stroke-width:2000"
         x="68633.055"
         y="40235.301">Fracture</tspan></text><text
       xml:space="preserve"
       style="font-size:2822.22px;line-height:1.3;font-family:Arial;-inkscape-font-specification:Arial;text-align:start;letter-spacing:0px;writing-mode:lr-tb;direction:ltr;text-anchor:start;fill:#000000;stroke-width:2000"
       x="49040.617"
       y="22286.098"
       id="text2"><tspan
         sodipodi:role="line"
         id="tspan2"
         style="font-size:2822.22px;stroke-width:2000"
         x="49040.617"
         y="22286.098">Necking begins</tspan></text></g></svg>
