<?xml version="1.0" encoding="UTF-8" standalone="no"?>
<!-- Created with Inkscape (http://www.inkscape.org/) -->

<svg
   version="1.1"
   id="svg2"
   xml:space="preserve"
   width="618.51764"
   height="234.06274"
   viewBox="0 0 618.51763 234.06274"
   sodipodi:docname="kerbformzahl.svg"
   inkscape:version="1.4.2 (f4327f4, 2025-05-13)"
   xmlns:inkscape="http://www.inkscape.org/namespaces/inkscape"
   xmlns:sodipodi="http://sodipodi.sourceforge.net/DTD/sodipodi-0.dtd"
   xmlns="http://www.w3.org/2000/svg"
   xmlns:svg="http://www.w3.org/2000/svg"
   xmlns:rdf="http://www.w3.org/1999/02/22-rdf-syntax-ns#"
   xmlns:cc="http://creativecommons.org/ns#"
   xmlns:dc="http://purl.org/dc/elements/1.1/"><metadata
     id="metadata8"><rdf:RDF><cc:Work
         rdf:about=""><dc:format>image/svg+xml</dc:format><dc:type
           rdf:resource="http://purl.org/dc/dcmitype/StillImage" /></cc:Work></rdf:RDF></metadata><defs
     id="defs6" /><sodipodi:namedview
     pagecolor="#ffffff"
     bordercolor="#666666"
     borderopacity="1"
     objecttolerance="10"
     gridtolerance="10"
     guidetolerance="10"
     inkscape:pageopacity="0"
     inkscape:pageshadow="2"
     inkscape:window-width="1920"
     inkscape:window-height="1057"
     id="namedview4"
     showgrid="false"
     fit-margin-top="0"
     fit-margin-left="0"
     fit-margin-right="0"
     fit-margin-bottom="0"
     inkscape:zoom="1.6819299"
     inkscape:cx="299.35849"
     inkscape:cy="36.565139"
     inkscape:window-x="1912"
     inkscape:window-y="-8"
     inkscape:window-maximized="1"
     inkscape:current-layer="g10"
     inkscape:showpageshadow="2"
     inkscape:pagecheckerboard="0"
     inkscape:deskcolor="#d1d1d1" /><g
     id="g10"
     inkscape:groupmode="layer"
     inkscape:label="kerbformzahl"
     transform="matrix(1.3333333,0,0,-1.3333333,-402.88028,710.32453)"><path
   d="m 747.79504,426.8085 v -2.97638 l 4.13385,-0.49606 -0.82678,0.99213 v 0.99209 l 0.82678,0.99216 0.82679,0.49606 1.6535,0.4961 1.65356,-0.4961 0.82673,-0.49606 0.82684,-0.99216 v -0.99209 l -0.82684,-0.99213 -0.82673,-0.49609"
   style="fill:none;stroke:#000000;stroke-width:0.36000001;stroke-linecap:round;stroke-linejoin:round;stroke-miterlimit:2;stroke-dasharray:none;stroke-opacity:1"
   id="path140"
   inkscape:connector-curvature="0" /><path
   d="m 757.71631,432.76123 -0.82684,-0.9921 -0.82673,-0.49606 -1.65356,-0.49606 h -3.30707 l -1.65356,0.49606 -0.82672,0.49606 -0.82679,0.9921 0.82679,0.99216 0.82672,0.49606 1.65356,0.49606 h 3.30707 l 1.65356,-0.49606 0.82673,-0.49606 0.82684,-0.99216"
   style="fill:none;stroke:#000000;stroke-width:0.36000001;stroke-linecap:round;stroke-linejoin:round;stroke-miterlimit:2;stroke-dasharray:none;stroke-opacity:1"
   id="path142"
   inkscape:connector-curvature="0" /><path
   d="m 760.19659,499.65891 1.41736,-9.92127 h -2.83465 z"
   style="fill:#000000;fill-opacity:1;fill-rule:nonzero;stroke:none"
   id="path144"
   inkscape:connector-curvature="0" /><path
   d="m 760.19659,499.65891 1.41736,-9.92127 h -2.83465 z"
   style="fill:none;stroke:#000000;stroke-width:0.00029;stroke-linecap:round;stroke-linejoin:round;stroke-miterlimit:2;stroke-dasharray:none;stroke-opacity:1"
   id="path146"
   inkscape:connector-curvature="0" /><path
   d="m 760.19659,357.92661 -1.41729,9.92126 h 2.83465 z"
   style="fill:#000000;fill-opacity:1;fill-rule:nonzero;stroke:none"
   id="path148"
   inkscape:connector-curvature="0" /><path
   d="m 760.19659,357.92661 -1.41729,9.92126 h 2.83465 z"
   style="fill:none;stroke:#000000;stroke-width:0.00029;stroke-linecap:round;stroke-linejoin:round;stroke-miterlimit:2;stroke-dasharray:none;stroke-opacity:1"
   id="path150"
   inkscape:connector-curvature="0" /><path
   d="m 507.55188,532.56085 v -9.92126"
   style="fill:none;stroke:#000000;stroke-width:0.36000001;stroke-linecap:round;stroke-linejoin:round;stroke-miterlimit:2;stroke-dasharray:none;stroke-opacity:1"
   id="path152"
   inkscape:connector-curvature="0" /><path
   d="m 517.47314,532.56085 h -2.97637 l -0.49604,-4.13385 0.99207,0.82678 h 0.99219 l 0.99206,-0.82678 0.49609,-0.82678 0.4961,-1.65356 -0.4961,-1.65351 -0.49609,-0.82678 -0.99206,-0.82678 h -0.99219 l -0.99207,0.82678 -0.49609,0.82678"
   style="fill:none;stroke:#000000;stroke-width:0.36000001;stroke-linecap:round;stroke-linejoin:round;stroke-miterlimit:2;stroke-dasharray:none;stroke-opacity:1"
   id="path154"
   inkscape:connector-curvature="0" /><path
   d="m 523.4259,522.63959 -0.99212,0.82678 -0.4961,0.82678 -0.49603,1.65351 v 3.30712 l 0.49603,1.65351 0.4961,0.82678 0.99212,0.82678 0.99213,-0.82678 0.49603,-0.82678 0.4961,-1.65351 v -3.30712 l -0.4961,-1.65351 -0.49603,-0.82678 -0.99213,-0.82678"
   style="fill:none;stroke:#000000;stroke-width:0.36000001;stroke-linecap:round;stroke-linejoin:round;stroke-miterlimit:2;stroke-dasharray:none;stroke-opacity:1"
   id="path156"
   inkscape:connector-curvature="0" /><path
   d="m 302.89047,520.1593 9.92127,1.4173 v -2.83466 z"
   style="fill:#000000;fill-opacity:1;fill-rule:nonzero;stroke:none"
   id="path158"
   inkscape:connector-curvature="0" /><path
   d="m 302.89047,520.1593 9.92127,1.4173 v -2.83466 z"
   style="fill:none;stroke:#000000;stroke-width:0.00029;stroke-linecap:round;stroke-linejoin:round;stroke-miterlimit:2;stroke-dasharray:none;stroke-opacity:1"
   id="path160"
   inkscape:connector-curvature="0" /><path
   d="m 728.08734,520.1593 -9.92126,-1.41736 v 2.83466 z"
   style="fill:#000000;fill-opacity:1;fill-rule:nonzero;stroke:none"
   id="path162"
   inkscape:connector-curvature="0" /><path
   d="m 728.08734,520.1593 -9.92126,-1.41736 v 2.83466 z"
   style="fill:none;stroke:#000000;stroke-width:0.00029;stroke-linecap:round;stroke-linejoin:round;stroke-miterlimit:2;stroke-dasharray:none;stroke-opacity:1"
   id="path164"
   inkscape:connector-curvature="0" /><path
   d="m 477.38272,411.43054 -0.82672,0.99216 v 0.99209 l 0.82672,0.99213 0.82678,0.4961 h 0.82682 l 0.82672,-0.4961 0.82678,-0.99213 0.82681,0.99213 0.82672,0.4961 0.82679,0.49603 h 0.82678 l 0.82675,-0.49603 0.82678,-0.4961 0.82678,-0.99213 v -0.99209 l -0.82678,-0.99216 -0.82678,-0.49606"
   style="fill:none;stroke:#000000;stroke-width:0.36000001;stroke-linecap:round;stroke-linejoin:round;stroke-miterlimit:2;stroke-dasharray:none;stroke-opacity:1"
   id="path166"
   inkscape:connector-curvature="0" /><path
   d="m 480.68982,412.4227 v 0.99209"
   style="fill:none;stroke:#000000;stroke-width:0.36000001;stroke-linecap:round;stroke-linejoin:round;stroke-miterlimit:2;stroke-dasharray:none;stroke-opacity:1"
   id="path168"
   inkscape:connector-curvature="0" /><path
   d="m 477.38272,419.36755 -0.82672,0.99213 v 0.99213 l 0.82672,0.99215 0.82678,0.49601 h 0.82682 l 0.82672,-0.49601 0.82678,-0.99215 0.82681,0.99215 0.82672,0.49601 0.82679,0.49609 h 0.82678 l 0.82675,-0.49609 0.82678,-0.49601 0.82678,-0.99215 v -0.99213 l -0.82678,-0.99213 -0.82678,-0.49606"
   style="fill:none;stroke:#000000;stroke-width:0.36000001;stroke-linecap:round;stroke-linejoin:round;stroke-miterlimit:2;stroke-dasharray:none;stroke-opacity:1"
   id="path170"
   inkscape:connector-curvature="0" /><path
   d="m 480.68982,420.35968 v 0.99213"
   style="fill:none;stroke:#000000;stroke-width:0.36000001;stroke-linecap:round;stroke-linejoin:round;stroke-miterlimit:2;stroke-dasharray:none;stroke-opacity:1"
   id="path172"
   inkscape:connector-curvature="0" /><path
   d="m 486.47723,428.79276 v -0.49607 h -0.82678 l 0.82678,0.49607"
   style="fill:none;stroke:#000000;stroke-width:0.36000001;stroke-linecap:round;stroke-linejoin:round;stroke-miterlimit:2;stroke-dasharray:none;stroke-opacity:1"
   id="path174"
   inkscape:connector-curvature="0" /><path
   d="m 477.38272,435.24155 -0.82672,0.99215 v 0.99213 l 0.82672,0.99213 0.82678,0.49606 h 0.82682 l 0.82672,-0.49606 0.82678,-0.99213 0.82681,0.99213 0.82672,0.49606 0.82679,0.49606 h 0.82678 l 0.82675,-0.49606 0.82678,-0.49606 0.82678,-0.99213 v -0.99213 l -0.82678,-0.99215 -0.82678,-0.49604"
   style="fill:none;stroke:#000000;stroke-width:0.36000001;stroke-linecap:round;stroke-linejoin:round;stroke-miterlimit:2;stroke-dasharray:none;stroke-opacity:1"
   id="path176"
   inkscape:connector-curvature="0" /><path
   d="m 480.68982,436.2337 v 0.99213"
   style="fill:none;stroke:#000000;stroke-width:0.36000001;stroke-linecap:round;stroke-linejoin:round;stroke-miterlimit:2;stroke-dasharray:none;stroke-opacity:1"
   id="path178"
   inkscape:connector-curvature="0" /><path
   d="m 477.38272,443.17856 -0.82672,0.99216 v 0.99209 l 0.82672,0.99216 0.82678,0.49606 h 0.82682 l 0.82672,-0.49606 0.82678,-0.99216 0.82681,0.99216 0.82672,0.49606 0.82679,0.49606 h 0.82678 l 0.82675,-0.49606 0.82678,-0.49606 0.82678,-0.99216 v -0.99209 l -0.82678,-0.99216 -0.82678,-0.49606"
   style="fill:none;stroke:#000000;stroke-width:0.36000001;stroke-linecap:round;stroke-linejoin:round;stroke-miterlimit:2;stroke-dasharray:none;stroke-opacity:1"
   id="path180"
   inkscape:connector-curvature="0" /><path
   d="m 480.68982,444.17072 v 0.99209"
   style="fill:none;stroke:#000000;stroke-width:0.36000001;stroke-linecap:round;stroke-linejoin:round;stroke-miterlimit:2;stroke-dasharray:none;stroke-opacity:1"
   id="path182"
   inkscape:connector-curvature="0" /><path
   d="m 488.95755,476.03214 1.41733,-9.92127 h -2.83466 z"
   style="fill:#000000;fill-opacity:1;fill-rule:nonzero;stroke:none"
   id="path184"
   inkscape:connector-curvature="0" /><path
   d="m 488.95755,476.03214 1.41733,-9.92127 h -2.83466 z"
   style="fill:none;stroke:#000000;stroke-width:0.00029;stroke-linecap:round;stroke-linejoin:round;stroke-miterlimit:2;stroke-dasharray:none;stroke-opacity:1"
   id="path186"
   inkscape:connector-curvature="0" /><path
   d="m 488.95755,381.55338 -1.41733,9.92126 h 2.83466 z"
   style="fill:#000000;fill-opacity:1;fill-rule:nonzero;stroke:none"
   id="path188"
   inkscape:connector-curvature="0" /><path
   d="m 488.95755,381.55338 -1.41733,9.92126 h 2.83466 z"
   style="fill:none;stroke:#000000;stroke-width:0.00029;stroke-linecap:round;stroke-linejoin:round;stroke-miterlimit:2;stroke-dasharray:none;stroke-opacity:1"
   id="path190"
   inkscape:connector-curvature="0" /><path
   d="m 546.40167,462.85889 4.24256,5.07425"
   style="fill:none;stroke:#000000;stroke-width:0.36000001;stroke-linecap:round;stroke-linejoin:round;stroke-miterlimit:2;stroke-dasharray:none;stroke-opacity:1"
   id="path192"
   inkscape:connector-curvature="0" /><path
   d="m 549.58356,466.66461 1.82184,0.6322 0.7611,-0.63638 -0.14978,-0.95248"
   style="fill:none;stroke:#000000;stroke-width:0.36000001;stroke-linecap:round;stroke-linejoin:round;stroke-miterlimit:2;stroke-dasharray:none;stroke-opacity:1"
   id="path194"
   inkscape:connector-curvature="0" /><path
   d="m 522.73065,479.41681 8.52051,-5.27643 -1.81824,-2.17468 z"
   style="fill:#000000;fill-opacity:1;fill-rule:nonzero;stroke:none"
   id="path196"
   inkscape:connector-curvature="0" /><path
   d="m 522.73065,479.41681 8.52051,-5.27643 -1.81824,-2.17468 z"
   style="fill:none;stroke:#000000;stroke-width:0.00029;stroke-linecap:round;stroke-linejoin:round;stroke-miterlimit:2;stroke-dasharray:none;stroke-opacity:1"
   id="path198"
   inkscape:connector-curvature="0" /><path
   d="M 302.89047,499.65891 V 357.92661"
   style="fill:none;stroke:#000000;stroke-width:1.44000006;stroke-linecap:round;stroke-linejoin:round;stroke-miterlimit:2;stroke-dasharray:none;stroke-opacity:1"
   id="path216"
   inkscape:connector-curvature="0" /><path
   d="M 302.89047,357.92661 H 506.04953"
   style="fill:none;stroke:#000000;stroke-width:1.44000006;stroke-linecap:round;stroke-linejoin:round;stroke-miterlimit:2;stroke-dasharray:none;stroke-opacity:1"
   id="path218"
   inkscape:connector-curvature="0" /><path
   d="M 524.92828,357.92661 H 728.08734"
   style="fill:none;stroke:#000000;stroke-width:1.44000006;stroke-linecap:round;stroke-linejoin:round;stroke-miterlimit:2;stroke-dasharray:none;stroke-opacity:1"
   id="path220"
   inkscape:connector-curvature="0" /><path
   d="M 506.04953,499.65891 V 485.4715"
   style="fill:none;stroke:#000000;stroke-width:1.44000006;stroke-linecap:round;stroke-linejoin:round;stroke-miterlimit:2;stroke-dasharray:none;stroke-opacity:1"
   id="path222"
   inkscape:connector-curvature="0" /><path
   d="m 506.04953,357.92661 v 14.1874"
   style="fill:none;stroke:#000000;stroke-width:1.44000006;stroke-linecap:round;stroke-linejoin:round;stroke-miterlimit:2;stroke-dasharray:none;stroke-opacity:1"
   id="path224"
   inkscape:connector-curvature="0" /><path
   d="M 524.92828,499.65891 V 485.4715"
   style="fill:none;stroke:#000000;stroke-width:1.44000006;stroke-linecap:round;stroke-linejoin:round;stroke-miterlimit:2;stroke-dasharray:none;stroke-opacity:1"
   id="path226"
   inkscape:connector-curvature="0" /><path
   d="m 524.92828,357.92661 v 14.1874"
   style="fill:none;stroke:#000000;stroke-width:1.44000006;stroke-linecap:round;stroke-linejoin:round;stroke-miterlimit:2;stroke-dasharray:none;stroke-opacity:1"
   id="path228"
   inkscape:connector-curvature="0" /><path
   d="M 728.08734,499.65891 H 524.92828"
   style="fill:none;stroke:#000000;stroke-width:1.44000006;stroke-linecap:round;stroke-linejoin:round;stroke-miterlimit:2;stroke-dasharray:none;stroke-opacity:1"
   id="path230"
   inkscape:connector-curvature="0" /><path
   d="M 506.04953,499.65891 H 302.89047"
   style="fill:none;stroke:#000000;stroke-width:1.44000006;stroke-linecap:round;stroke-linejoin:round;stroke-miterlimit:2;stroke-dasharray:none;stroke-opacity:1"
   id="path232"
   inkscape:connector-curvature="0" /><path
   d="m 728.08734,357.92661 v 141.7323"
   style="fill:none;stroke:#000000;stroke-width:1.44000006;stroke-linecap:round;stroke-linejoin:round;stroke-miterlimit:2;stroke-dasharray:none;stroke-opacity:1"
   id="path234"
   inkscape:connector-curvature="0" /><path
   d="m 524.92828,372.11401 c 0,5.21323 -4.22619,9.43937 -9.43939,9.43937 m 0,0 c -5.21322,0 -9.43936,-4.22614 -9.43936,-9.43937"
   style="fill:none;stroke:#000000;stroke-width:1.44000006;stroke-linecap:round;stroke-linejoin:round;stroke-miterlimit:2;stroke-dasharray:none;stroke-opacity:1"
   id="path236"
   inkscape:connector-curvature="0" /><path
   d="m 506.04953,485.4715 c 0,-5.21323 4.22614,-9.43936 9.43936,-9.43936 m 0,0 c 5.2132,0 9.43939,4.22613 9.43939,9.43936"
   style="fill:none;stroke:#000000;stroke-width:1.44000006;stroke-linecap:round;stroke-linejoin:round;stroke-miterlimit:2;stroke-dasharray:none;stroke-opacity:1"
   id="path238"
   inkscape:connector-curvature="0" /><path
   d="m 302.89047,499.65891 v 26.16964"
   style="fill:none;stroke:#000000;stroke-width:0.36000001;stroke-linecap:round;stroke-linejoin:round;stroke-miterlimit:2;stroke-dasharray:none;stroke-opacity:1"
   id="path354"
   inkscape:connector-curvature="0" /><path
   d="m 728.08734,357.92661 h 37.77857"
   style="fill:none;stroke:#000000;stroke-width:0.36000001;stroke-linecap:round;stroke-linejoin:round;stroke-miterlimit:2;stroke-dasharray:none;stroke-opacity:1"
   id="path356"
   inkscape:connector-curvature="0" /><path
   d="M 515.48889,381.55338 H 483.28827"
   style="fill:none;stroke:#000000;stroke-width:0.36000001;stroke-linecap:round;stroke-linejoin:round;stroke-miterlimit:2;stroke-dasharray:none;stroke-opacity:1"
   id="path358"
   inkscape:connector-curvature="0" /><path
   d="m 488.95755,381.55338 v 94.47876"
   style="fill:none;stroke:#000000;stroke-width:0.36000001;stroke-linecap:round;stroke-linejoin:round;stroke-miterlimit:2;stroke-dasharray:none;stroke-opacity:1"
   id="path360"
   inkscape:connector-curvature="0" /><path
   d="m 522.73065,479.41681 26.26642,-21.96085"
   style="fill:none;stroke:#000000;stroke-width:0.36000001;stroke-linecap:round;stroke-linejoin:round;stroke-miterlimit:2;stroke-dasharray:none;stroke-opacity:1"
   id="path362"
   inkscape:connector-curvature="0" /><path
   d="M 515.48889,476.03214 H 483.28827"
   style="fill:none;stroke:#000000;stroke-width:0.36000001;stroke-linecap:round;stroke-linejoin:round;stroke-miterlimit:2;stroke-dasharray:none;stroke-opacity:1"
   id="path364"
   inkscape:connector-curvature="0" /><path
   d="m 728.08734,499.65891 h 37.77857"
   style="fill:none;stroke:#000000;stroke-width:0.36000001;stroke-linecap:round;stroke-linejoin:round;stroke-miterlimit:2;stroke-dasharray:none;stroke-opacity:1"
   id="path366"
   inkscape:connector-curvature="0" /><path
   d="M 302.89047,520.1593 H 728.08734"
   style="fill:none;stroke:#000000;stroke-width:0.36000001;stroke-linecap:round;stroke-linejoin:round;stroke-miterlimit:2;stroke-dasharray:none;stroke-opacity:1"
   id="path368"
   inkscape:connector-curvature="0" /><path
   d="m 728.08734,499.65891 v 26.16964"
   style="fill:none;stroke:#000000;stroke-width:0.36000001;stroke-linecap:round;stroke-linejoin:round;stroke-miterlimit:2;stroke-dasharray:none;stroke-opacity:1"
   id="path370"
   inkscape:connector-curvature="0" /><path
   d="m 760.19659,357.92661 v 141.7323"
   style="fill:none;stroke:#000000;stroke-width:0.36000001;stroke-linecap:round;stroke-linejoin:round;stroke-miterlimit:2;stroke-dasharray:none;stroke-opacity:1"
   id="path372"
   inkscape:connector-curvature="0" /><text
   xml:space="preserve"
   style="font-style:normal;font-weight:normal;font-size:30px;line-height:1.25;font-family:sans-serif;letter-spacing:0px;word-spacing:0px;fill:#000000;fill-opacity:1;stroke:none;stroke-width:0.75"
   x="318.65912"
   y="-375.03302"
   id="text4653"
   transform="scale(1,-1)"><tspan
     sodipodi:role="line"
     id="tspan4651"
     x="318.65912"
     y="-375.03302"
     style="font-style:normal;font-variant:normal;font-weight:normal;font-stretch:normal;font-size:15px;line-height:1.25;font-family:SWIsop1;-inkscape-font-specification:SWIsop1;stroke-width:0.75">t = 20</tspan></text>
</g></svg>
