<?xml version="1.0" encoding="UTF-8" standalone="no"?>
<!-- Creator: CorelDRAW -->

<svg
   xml:space="preserve"
   width="90mm"
   height="90mm"
   style="shape-rendering:geometricPrecision; text-rendering:geometricPrecision; image-rendering:optimizeQuality; fill-rule:evenodd"
   viewBox="0 0 90000 90000"
   version="1.1"
   id="svg2053"
   sodipodi:docname="Spgs-Dehnungs-Kurve_Dehngrenze.svg"
   inkscape:version="1.4.2 (f4327f4, 2025-05-13)"
   xmlns:inkscape="http://www.inkscape.org/namespaces/inkscape"
   xmlns:sodipodi="http://sodipodi.sourceforge.net/DTD/sodipodi-0.dtd"
   xmlns="http://www.w3.org/2000/svg"
   xmlns:svg="http://www.w3.org/2000/svg"
   xmlns:rdf="http://www.w3.org/1999/02/22-rdf-syntax-ns#"
   xmlns:cc="http://creativecommons.org/ns#"
   xmlns:dc="http://purl.org/dc/elements/1.1/"><metadata
     id="metadata2057"><rdf:RDF><cc:Work
         rdf:about=""><dc:format>image/svg+xml</dc:format><dc:type
           rdf:resource="http://purl.org/dc/dcmitype/StillImage" /><dc:title /></cc:Work></rdf:RDF></metadata><sodipodi:namedview
     pagecolor="#ffffff"
     bordercolor="#666666"
     borderopacity="1"
     objecttolerance="10"
     gridtolerance="10"
     guidetolerance="10"
     inkscape:pageopacity="0"
     inkscape:pageshadow="2"
     inkscape:window-width="1920"
     inkscape:window-height="1009"
     id="namedview2055"
     showgrid="false"
     inkscape:zoom="1.3875926"
     inkscape:cx="213.67943"
     inkscape:cy="256.19912"
     inkscape:window-x="-8"
     inkscape:window-y="-8"
     inkscape:window-maximized="1"
     inkscape:current-layer="svg2053"
     showborder="false"
     inkscape:showpageshadow="2"
     inkscape:pagecheckerboard="0"
     inkscape:deskcolor="#d1d1d1"
     inkscape:document-units="mm" /><defs
     id="defs1898"><style
       type="text/css"
       id="style1896"><![CDATA[
    .str3 {stroke:#1F1A17;stroke-width:76}
    .str4 {stroke:#1F1A17;stroke-width:176}
    .str1 {stroke:#1F1A17;stroke-width:176}
    .str5 {stroke:#1F1A17;stroke-width:353}
    .str0 {stroke:#1F1A17;stroke-width:176;stroke-dasharray:1760 880}
    .str2 {stroke:#1F1A17;stroke-width:176;stroke-dasharray:1764 882}
    .fil1 {fill:none}
    .fil0 {fill:#1F1A17}
   ]]></style><marker
       inkscape:stockid="Arrow1Mstart"
       orient="auto"
       refY="0"
       refX="0"
       id="Arrow1Mstart"
       style="overflow:visible"
       inkscape:isstock="true"><path
         id="path900"
         d="M 0,0 5,-5 -12.5,0 5,5 Z"
         style="fill:#000000;fill-opacity:1;fill-rule:evenodd;stroke:#000000;stroke-width:1.00000003pt;stroke-opacity:1"
         transform="matrix(0.4,0,0,0.4,4,0)"
         inkscape:connector-curvature="0" /></marker><marker
       inkscape:stockid="Arrow1Mend"
       orient="auto"
       refY="0"
       refX="0"
       id="Arrow1Mend"
       style="overflow:visible"
       inkscape:isstock="true"><path
         id="path903"
         d="M 0,0 5,-5 -12.5,0 5,5 Z"
         style="fill:#000000;fill-opacity:1;fill-rule:evenodd;stroke:#000000;stroke-width:1.00000003pt;stroke-opacity:1"
         transform="matrix(-0.4,0,0,-0.4,-4,0)"
         inkscape:connector-curvature="0" /></marker></defs><path
     style="fill:none;stroke:#1f1a17;stroke-width:176;stroke-dasharray:1760, 880"
     inkscape:connector-curvature="0"
     id="path1910"
     d="m 20038.169,82889 7799,-38851"
     class="fil1 str0" /><path
     style="fill:none;stroke:#1f1a17;stroke-width:176"
     inkscape:connector-curvature="0"
     id="path1912"
     d="m 48751.169,22979 -33047,21"
     class="fil1 str1" /><path
     style="fill:#1f1a17"
     inkscape:connector-curvature="0"
     id="path1914"
     d="m 10663.167,23070 v -2020 h 895 c 181.001,0 317.001,18 411.001,54 94,37 168,101 225,192 56,92 84,194 84,305 0,144 -46,264 -140,362 -92,99 -236,161 -430,188 72,34 125,67 162,101 78,71 152,161 222,268 l 351,550 h -336 l -267,-420 c -78,-121 -143,-214 -194,-278 -50,-65 -95.001,-110 -135.001,-135 -40,-26 -80,-44 -122,-55 -30,-6 -80,-9 -149,-9 h -310 v 897 z m 267,-1128 h 575 c 122.001,0 218.001,-13 286.001,-38 69,-26 122,-66 157,-122 36,-55 54,-116 54,-181 0,-95 -34,-174 -104,-236 -69,-61 -179,-92 -329.001,-92 h -639 z"
     class="fil0" /><path
     style="fill:#1f1a17"
     inkscape:connector-curvature="0"
     id="path1916"
     d="m 12720.168,23509 v -1098 h 166 v 154 c 35,-54 81,-97 138,-130 57,-32 122,-49 195.001,-49 81,0 148,17 200,51 52,34 89,81 110,141 87,-128 200,-192 339,-192 109,0 193,30 251,91 59,60 88,153 88,278 v 754 h -185 v -692 c 0,-74 -6,-128 -18,-161 -12,-32 -34,-59 -66,-79 -31,-20 -69,-30 -111,-30 -78,0 -141,26 -193,77 -50,52 -76,134 -76,247 v 638 h -186 v -713 c 0,-83 -15,-145 -46,-187 -30,-41 -79,-62 -148,-62 -53.001,0 -101.001,14 -145.001,42 -45,27 -77,68 -97,120 -20,54 -30,130 -30,230 v 570 z"
     class="fil0" /><path
     style="fill:none;stroke:#1f1a17;stroke-width:176"
     inkscape:connector-curvature="0"
     id="path1918"
     d="m 27838.169,44000 h -12134"
     class="fil1 str1" /><path
     style="fill:#1f1a17"
     inkscape:connector-curvature="0"
     id="path1920"
     d="m 6926.1669,44000 v -2020 h 896 c 180,0 317,18 410,54 94,36 169,100 225,192 56,92 84,194 84,305 0,143 -46,264 -139,362 -93,98 -236,161 -430,188 71,34 124,67 161,100 78,72 152,162 222,269 l 352,550 h -337 l -267,-421 c -78,-121 -143,-214 -193,-278 -51,-64 -96,-109 -136,-135 -40,-26 -80,-43 -122,-54 -30,-6 -80,-9 -149,-9 h -310 v 897 z m 267,-1129 h 575 c 122,0 218,-12 287,-38 69,-25 121,-66 157,-121 35,-56 53,-116 53,-181 0,-96 -34,-174 -104,-236 -69,-61 -178,-92 -328,-92 h -640 z"
     class="fil0" /><path
     style="fill:#1f1a17"
     inkscape:connector-curvature="0"
     id="path1922"
     d="m 8882.1669,44420 v -1518 h 169 v 143 c 40,-56 85,-98 136,-126 50,-28 111,-42 182,-42 94,0 177,25 249,73 71,48 125,116 162,204 36,88 55,184 55,289 0,112 -20,213 -61,303 -40,90 -99,159 -176,207 -76,48 -157,72 -242,72 -62,0 -117,-14 -167,-40 -49,-26 -89,-59 -121,-99 v 534 z m 168,-963 c 0,141 29,246 86,314 57,67 127,101 208,101 82,0 153,-35 212,-105 59,-70 89,-178 89,-325 0,-140 -29,-245 -87,-315 -57,-69 -126,-104 -206,-104 -79,0 -149,37 -210,111 -61,74 -92,182 -92,323 z"
     class="fil0" /><path
     style="fill:#1f1a17"
     inkscape:connector-curvature="0"
     id="path1924"
     d="m 10007.167,43253 c 0,-180 19,-324 56,-433 36,-109 91,-194 164,-253 73,-59 164,-89 274,-89 82,0 153,17 214,50 62,32 112,79 152,141 40,62 72,137 94,226 23,88 34,207 34,358 0,177 -18,321 -54,430 -37,109 -92,194 -164,253 -73,60 -165,90 -276,90 -146,0 -261,-53 -344,-157 -100,-126 -150,-332 -150,-616 z m 192,0 c 0,248 29,414 87,496 58,83 130,124 215,124 86,0 158,-42 216,-124 58,-83 87,-248 87,-496 0,-250 -29,-416 -87,-497 -58,-83 -131,-124 -218,-124 -85,0 -153,37 -205,109 -63,92 -95,263 -95,512 z"
     class="fil0" /><path
     style="fill:#1f1a17"
     inkscape:connector-curvature="0"
     id="path1926"
     d="m 11285.167,44000 v -212 h 212 v 212 c 0,78 -14,141 -42,189 -27,47 -71,84 -131,111 l -52,-80 c 39,-17 68,-43 87,-76 19,-33 29,-81 31,-144 z"
     class="fil0" /><path
     style="fill:#1f1a17"
     inkscape:connector-curvature="0"
     id="path1928"
     d="m 12751.168,43821 v 179 h -1002 c -1,-45 6,-88 21,-129 26,-69 67,-136 123,-202 56,-66 137,-143 243,-229 165,-135 277,-242 334,-321 58,-79 87,-154 87,-224 0,-74 -26,-136 -79,-187 -53,-50 -122,-76 -206,-76 -90,0 -161,27 -215,81 -54,54 -81,128 -82,223 l -191,-19 c 13,-143 62,-252 148,-327 85,-74 200,-112 344,-112 145,0 260,41 345,121 85,81 127,181 127,300 0,61 -12,120 -37,179 -25,59 -66,120 -123,185 -58,65 -154,154 -287,267 -112,93 -183,157 -215,190 -32,34 -58,67 -79,101 z"
     class="fil0" /><path
     style="fill:none;stroke:#1f1a17;stroke-width:176"
     inkscape:connector-curvature="0"
     id="path1930"
     d="m 26372.169,48000 h -10658"
     class="fil1 str1" /><path
     style="fill:#1f1a17"
     inkscape:connector-curvature="0"
     id="path1932"
     d="m 5926.1669,48000 v -2020 h 896 c 180,0 317,18 410,55 94,36 169,100 225,192 56,92 84,193 84,304 0,144 -46,264 -139,363 -93,98 -236,160 -430,187 71,34 124,68 161,101 78,71 152,161 222,268 l 352,550 h -337 l -267,-420 c -78,-121 -143,-214 -193,-278 -51,-65 -96,-110 -136,-135 -40,-26 -80,-44 -122,-54 -30,-6 -80,-10 -149,-10 h -310 v 897 z m 267,-1128 h 575 c 122,0 218,-13 287,-38 69,-26 121,-66 157,-122 35,-55 53,-115 53,-181 0,-95 -34,-174 -104,-235 -69,-62 -178,-92 -328,-92 h -640 z"
     class="fil0" /><path
     style="fill:#1f1a17"
     inkscape:connector-curvature="0"
     id="path1934"
     d="M 10999.167,46813 H 9665.1669 v -232 h 1334.0001 z m 0,613 H 9665.1669 v -232 h 1334.0001 z"
     class="fil0" /><path
     style="fill:#1f1a17"
     inkscape:connector-curvature="0"
     id="path1936"
     d="m 12162.168,48000 v -2020 h 895 c 181.001,0 317.001,18 411.001,55 94,36 168,100 225,192 56,92 84,193 84,304 0,144 -46,264 -140,363 -92,98 -236,160 -430,187 72,34 125,68 162,101 78,71 152,161 222,268 l 351,550 h -336 l -267,-420 c -78,-121 -143,-214 -194.001,-278 -50,-65 -95,-110 -135,-135 -40,-26 -80,-44 -122,-54 -30,-6 -80,-10 -149,-10 h -310 v 897 z m 267,-1128 h 575 c 122,0 218.001,-13 286.001,-38 69,-26 122,-66 157,-122 36,-55 54,-115 54,-181 0,-95 -34,-174 -104,-235 -69,-62 -179,-92 -329.001,-92 h -639 z"
     class="fil0" /><path
     style="fill:#1f1a17"
     inkscape:connector-curvature="0"
     id="path1938"
     d="m 7882.1669,48421 v -1518 h 169 v 142 c 40,-55 85,-97 136,-125 50,-28 111,-42 182,-42 94,0 177,24 249,72 71,48 125,117 162,204 36,88 55,185 55,289 0,112 -20,214 -61,304 -40,90 -99,158 -176,206 -76,48 -157,72 -242,72 -62,0 -117,-13 -167,-39 -49,-26 -89,-59 -121,-99 v 534 z m 168,-963 c 0,141 29,245 86,313 57,67 127,101 208,101 82,0 153,-35 212,-105 59,-70 89,-178 89,-325 0,-140 -29,-244 -87,-314 -57,-70 -126,-105 -206,-105 -79,0 -149,38 -210,112 -61,74 -92,182 -92,323 z"
     class="fil0" /><path
     style="fill:#1f1a17"
     inkscape:connector-curvature="0"
     id="path1940"
     d="m 14869.169,47647 192,23 c -30,113 -86,200 -168,262 -82,62 -187,93 -315,93 -160,0 -287,-49 -381,-148 -95,-99 -141,-238 -141,-416 0,-185 47,-328 142,-430 95,-102 218,-153 370,-153 147,0 267,50 360,150 93,100 139,240 139,421 0,12 0,28 -1,50 h -818 c 7,121 41,213 102,277 62,64 138,96 229,96 69,0 127,-18 175,-54 48,-35 87,-92 115,-171 z m -611,-301 h 613 c -8,-92 -32,-162 -70,-207 -60,-72 -137,-108 -231,-108 -85,0 -157,28 -215,86 -58,57 -91,133 -97,229 z"
     class="fil0" /><path
     style="fill:none;stroke:#1f1a17;stroke-width:176"
     inkscape:connector-curvature="0"
     id="path1942"
     d="M 20028.169,84945 V 82944"
     class="fil1 str1" /><path
     style="fill:#1f1a17"
     inkscape:connector-curvature="0"
     id="path1944"
     d="m 19013.169,87004 c 0,-239 24,-432 74,-577 49,-146 122,-258 219,-337 97,-79 219,-119 365,-119 109,0 204,22 286,66 82,43 149,106 203,189 53,82 95,182 125,300 30,118 45,277 45,478 0,237 -24,428 -73,574 -48,145 -121,258 -218,337 -97,80 -219,119 -368,119 -194,0 -347,-69 -458,-209 -133,-168 -200,-442 -200,-821 z m 255,0 c 0,331 39,552 116,662 78,110 174,165 287,165 115,0 210,-56 288,-166 77,-110 116,-331 116,-661 0,-333 -39,-554 -116,-663 -78,-110 -174,-164 -290,-164 -114,0 -205,48 -273,145 -85,122 -128,350 -128,682 z"
     class="fil0" /><path
     style="fill:#1f1a17"
     inkscape:connector-curvature="0"
     id="path1946"
     d="m 20716.169,88000 v -283 h 283 v 283 c 0,104 -19,188 -55,252 -37,63 -96,112 -175,148 l -69,-107 c 52,-23 90,-56 115,-101 25,-44 39,-108 42,-192 z"
     class="fil0" /><path
     style="fill:#1f1a17"
     inkscape:connector-curvature="0"
     id="path1948"
     d="m 22670.169,87761 v 239 h -1335 c -2,-60 8,-117 29,-172 34,-91 88,-181 163,-269 75,-88 183,-190 325,-306 219,-180 368,-323 445,-428 77,-105 116,-205 116,-298 0,-99 -36,-181 -106,-249 -70,-67 -162,-101 -275,-101 -119,0 -215,36 -286,108 -72,71 -108,170 -109,297 l -255,-26 c 17,-191 83,-335 197,-435 114,-100 267,-150 459,-150 194,0 347,54 460,162 113,107 170,240 170,399 0,81 -17,161 -50,239 -33,78 -88,160 -165,246 -77,87 -204,205 -382,356 -149,125 -244,210 -287,254 -42,45 -77,89 -105,134 z"
     class="fil0" /><path
     style="fill:#1f1a17"
     inkscape:connector-curvature="0"
     id="path1950"
     d="m 22983.169,86465 c 0,-144 36,-267 109,-368 72,-101 178,-152 315,-152 127,0 232,46 315,136 83,91 125,224 125,399 0,171 -42,303 -126,395 -84,92 -187,138 -311,138 -122,0 -224,-45 -305,-136 -81,-91 -122,-228 -122,-412 z m 432,-349 c -62,0 -113,27 -154,80 -41,53 -61,151 -61,294 0,129 20,220 61,273 42,53 93,79 154,79 62,0 113,-26 154,-80 41,-53 62,-150 62,-292 0,-130 -21,-222 -62,-274 -42,-54 -93,-80 -154,-80 z m 1,1958 1105,-2129 h 201 l -1101,2129 z m 873,-548 c 0,-145 37,-268 109,-369 73,-100 178,-150 317,-150 127,0 232,45 315,135 83,91 125,223 125,399 0,171 -42,302 -126,395 -84,92 -188,138 -312,138 -123,0 -224,-45 -306,-137 -81,-91 -122,-228 -122,-411 z m 433,-349 c -62,0 -114,27 -155,80 -41,53 -61,151 -61,294 0,128 20,219 62,273 41,53 92,80 153,80 63,0 115,-27 156,-80 41,-54 62,-151 62,-293 0,-130 -21,-222 -63,-275 -41,-52 -92,-79 -154,-79 z"
     class="fil0" /><path
     style="fill:#1f1a17"
     inkscape:connector-curvature="0"
     id="path1952"
     d="m 85080.505,85702 -178,143 c -113,-85 -219,-128 -317,-128 -81,0 -140,22 -178,65 -37,43 -55,90 -55,139 0,65 27,118 83,161 55,42 136,64 242,64 14,0 37,-1 69,-1 v 207 c -30,0 -52,-1 -66,-1 -131,0 -223,25 -274,76 -51,51 -76,107 -76,171 0,65 26,120 77,165 51,44 112,66 183,66 130,0 251,-60 364,-180 l 178,150 c -147,156 -330,234 -549,234 -171,0 -300,-43 -384,-131 -85,-87 -127,-188 -127,-304 0,-167 81,-285 243,-354 -135,-77 -203,-182 -203,-316 0,-109 40,-207 120,-294 80,-87 203,-131 368,-131 189,0 349,67 480,199 z"
     class="fil0" /><path
     style="fill:none;stroke:#1f1a17;stroke-width:176;stroke-dasharray:1764, 882"
     inkscape:connector-curvature="0"
     id="path1976"
     d="m 68296.169,83000 8408,-42038"
     class="fil1 str2" /><path
     style="fill:none;stroke:#1f1a17;stroke-width:76"
     inkscape:connector-curvature="0"
     id="path1978"
     d="m 49250.169,22009 4000,-9009"
     class="fil1 str3" /><path
     style="fill:#1f1a17"
     inkscape:connector-curvature="0"
     id="path1980"
     d="M 53927.169,12000 V 9980 h 1461 v 238 h -1193 v 619 h 1117 v 237 h -1117 v 688 h 1240 v 238 z"
     class="fil0" /><path
     style="fill:#1f1a17"
     inkscape:connector-curvature="0"
     id="path1982"
     d="m 55774.169,10265 v -285 h 248 v 285 z m 0,1735 v -1463 h 248 v 1463 z"
     class="fil0" /><path
     style="fill:#1f1a17"
     inkscape:connector-curvature="0"
     id="path1984"
     d="m 56400.169,12000 v -1463 h 223 v 208 c 107,-161 263,-242 465,-242 89,0 170,16 244,48 74,32 129,73 166,125 37,51 62,112 77,183 9,46 14,126 14,241 v 900 h -249 v -890 c 0,-101 -9,-177 -28,-227 -20,-50 -54,-90 -103,-120 -49,-30 -107,-45 -173,-45 -106,0 -196,34 -274,101 -76,67 -114,194 -114,382 v 799 z"
     class="fil0" /><path
     style="fill:#1f1a17"
     inkscape:connector-curvature="0"
     id="path1986"
     d="m 57870.169,11563 245,-38 c 14,98 52,173 115,226 63,52 151,78 264,78 114,0 199,-23 254,-69 55,-47 83,-101 83,-164 0,-56 -25,-100 -74,-132 -34,-22 -118,-50 -253,-84 -182,-46 -308,-86 -379,-119 -70,-34 -123,-80 -159,-140 -37,-59 -55,-124 -55,-196 0,-65 15,-125 45,-181 30,-56 71,-102 122,-139 39,-28 91,-52 158,-72 66,-20 138,-30 214,-30 115,0 215,17 302,50 87,33 151,78 193,134 41,57 69,132 85,227 l -242,33 c -12,-75 -44,-134 -96,-176 -53,-42 -128,-64 -224,-64 -114,0 -195,19 -244,57 -49,38 -73,82 -73,132 0,33 10,61 30,87 21,27 52,49 95,66 25,9 98,31 220,63 175,48 297,86 367,116 69,29 124,73 163,130 40,57 59,127 59,212 0,83 -24,161 -72,234 -48,73 -118,129 -209,169 -91,40 -194,60 -308,60 -191,0 -336,-40 -435,-119 -100,-79 -164,-196 -191,-351 z"
     class="fil0" /><path
     style="fill:#1f1a17"
     inkscape:connector-curvature="0"
     id="path1988"
     d="m 60335.169,11464 244,32 c -26,168 -95,299 -205,394 -109,95 -244,143 -404,143 -200,0 -361,-65 -483,-196 -122,-131 -183,-319 -183,-563 0,-158 27,-297 79,-415 52,-119 132,-207 239,-267 107,-59 224,-89 349,-89 159,0 289,41 390,121 101,81 166,194 195,343 l -241,37 c -23,-98 -64,-172 -122,-222 -59,-50 -129,-75 -212,-75 -125,0 -227,45 -305,135 -78,89 -117,231 -117,425 0,196 38,339 114,429 75,89 173,133 294,133 98,0 179,-30 244,-90 65,-59 107,-151 124,-275 z"
     class="fil0" /><path
     style="fill:#1f1a17"
     inkscape:connector-curvature="0"
     id="path1990"
     d="M 60792.169,12000 V 9980 h 247 v 725 c 116,-134 262,-202 439,-202 108,0 202,22 282,65 80,42 137,101 172,177 34,75 51,184 51,327 v 928 h -248 v -928 c 0,-123 -27,-214 -80,-270 -54,-56 -130,-85 -228,-85 -74,0 -143,19 -208,57 -65,38 -111,90 -138,155 -28,65 -42,156 -42,270 v 801 z"
     class="fil0" /><path
     style="fill:#1f1a17"
     inkscape:connector-curvature="0"
     id="path1992"
     d="m 62361.169,12000 v -1463 h 223 v 208 c 108,-161 263,-242 466,-242 88,0 169,16 243,48 74,32 129,73 166,125 37,51 63,112 78,183 8,46 13,126 13,241 v 900 h -248 v -890 c 0,-101 -10,-177 -29,-227 -19,-50 -53,-90 -102,-120 -50,-30 -107,-45 -173,-45 -106,0 -197,34 -274,101 -77,67 -115,194 -115,382 v 799 z"
     class="fil0" /><path
     style="fill:#1f1a17"
     inkscape:connector-curvature="0"
     id="path1994"
     d="m 64890.169,12000 v -215 c -115,166 -269,248 -465,248 -86,0 -167,-16 -242,-49 -74,-33 -130,-75 -166,-125 -37,-50 -62,-112 -77,-184 -10,-49 -15,-126 -15,-232 v -906 h 248 v 811 c 0,130 5,217 15,262 16,65 49,116 99,154 51,37 114,55 188,55 74,0 144,-18 209,-56 66,-39 112,-91 139,-156 27,-66 40,-162 40,-286 v -784 h 248 v 1463 z m -758,-1750 v -282 h 259 v 282 z m 514,0 v -282 h 259 v 282 z"
     class="fil0" /><path
     style="fill:#1f1a17"
     inkscape:connector-curvature="0"
     id="path1996"
     d="m 65497.169,12000 v -1463 h 223 v 221 c 57,-103 110,-172 158,-205 48,-33 102,-50 159,-50 84,0 169,27 255,80 l -85,231 c -60,-36 -121,-54 -182,-54 -54,0 -103,16 -146,49 -43,33 -74,78 -92,136 -28,88 -42,184 -42,289 v 766 z"
     class="fil0" /><path
     style="fill:#1f1a17"
     inkscape:connector-curvature="0"
     id="path1998"
     d="m 67399.169,12000 v -215 c -114,166 -269,248 -465,248 -86,0 -167,-16 -241,-49 -75,-33 -131,-75 -167,-125 -36,-50 -62,-112 -76,-184 -10,-49 -16,-126 -16,-232 v -906 h 248 v 811 c 0,130 6,217 15,262 16,65 49,116 100,154 50,37 113,55 187,55 75,0 144,-18 210,-56 65,-39 111,-91 138,-156 27,-66 41,-162 41,-286 v -784 h 248 v 1463 z"
     class="fil0" /><path
     style="fill:#1f1a17"
     inkscape:connector-curvature="0"
     id="path2000"
     d="m 68010.169,12000 v -1463 h 223 v 208 c 107,-161 263,-242 465,-242 89,0 170,16 244,48 74,32 129,73 166,125 37,51 62,112 77,183 9,46 14,126 14,241 v 900 h -249 v -890 c 0,-101 -9,-177 -28,-227 -20,-50 -54,-90 -103,-120 -49,-30 -107,-45 -173,-45 -106,0 -196,34 -274,101 -76,67 -114,194 -114,382 v 799 z"
     class="fil0" /><path
     style="fill:#1f1a17"
     inkscape:connector-curvature="0"
     id="path2002"
     d="m 69534.169,12121 241,36 c 10,74 38,129 84,163 61,46 146,69 252,69 115,0 203,-23 266,-69 63,-46 104,-111 127,-193 13,-51 18,-157 17,-318 -108,127 -243,191 -405,191 -201,0 -357,-72 -467,-218 -110,-145 -165,-319 -165,-522 0,-140 25,-268 76,-386 50,-119 124,-210 220,-274 96,-64 209,-97 338,-97 173,0 315,70 427,210 v -176 h 229 v 1265 c 0,227 -23,389 -70,484 -46,95 -120,170 -220,225 -101,55 -225,83 -372,83 -174,0 -315,-39 -423,-118 -107,-78 -159,-197 -155,-355 z m 205,-879 c 0,192 38,332 115,420 76,89 171,132 286,132 114,0 209,-43 286,-131 78,-88 116,-225 116,-413 0,-179 -39,-314 -119,-405 -79,-90 -175,-136 -287,-136 -110,0 -204,45 -282,134 -77,90 -115,223 -115,399 z"
     class="fil0" /><path
     style="fill:#1f1a17"
     inkscape:connector-curvature="0"
     id="path2004"
     d="m 71050.169,11563 245,-38 c 13,98 52,173 115,226 63,52 150,78 264,78 114,0 198,-23 253,-69 55,-47 83,-101 83,-164 0,-56 -24,-100 -73,-132 -34,-22 -119,-50 -254,-84 -181,-46 -308,-86 -378,-119 -70,-34 -124,-80 -160,-140 -36,-59 -54,-124 -54,-196 0,-65 15,-125 45,-181 29,-56 70,-102 122,-139 38,-28 91,-52 157,-72 67,-20 138,-30 215,-30 114,0 215,17 302,50 87,33 151,78 192,134 42,57 70,132 86,227 l -243,33 c -11,-75 -43,-134 -96,-176 -52,-42 -127,-64 -223,-64 -114,0 -196,19 -244,57 -49,38 -74,82 -74,132 0,33 11,61 31,87 20,27 52,49 95,66 25,9 98,31 219,63 176,48 298,86 367,116 70,29 124,73 164,130 39,57 59,127 59,212 0,83 -24,161 -72,234 -49,73 -118,129 -209,169 -91,40 -194,60 -309,60 -190,0 -335,-40 -435,-119 -100,-79 -163,-196 -190,-351 z"
     class="fil0" /><path
     style="fill:#1f1a17"
     inkscape:connector-curvature="0"
     id="path2006"
     d="m 72789.169,12000 h -230 V 9980 h 247 v 720 c 105,-131 239,-197 401,-197 91,0 176,19 256,55 81,36 146,87 199,153 51,66 92,145 121,238 30,92 45,192 45,297 0,251 -62,445 -187,582 -123,137 -272,205 -446,205 -173,0 -308,-72 -406,-216 z m -3,-743 c 0,176 24,302 71,380 78,128 184,192 317,192 109,0 203,-47 282,-141 79,-94 118,-235 118,-421 0,-191 -38,-332 -114,-423 -75,-91 -167,-137 -274,-137 -109,0 -203,48 -282,142 -79,94 -118,230 -118,408 z"
     class="fil0" /><path
     style="fill:#1f1a17"
     inkscape:connector-curvature="0"
     id="path2008"
     d="m 75131.169,11529 256,31 c -40,150 -115,266 -224,349 -110,83 -249,124 -419,124 -214,0 -384,-66 -509,-198 -126,-131 -188,-316 -188,-554 0,-247 63,-438 190,-574 127,-135 291,-204 493,-204 196,0 356,67 480,200 124,133 186,321 186,562 0,15 -1,37 -2,67 h -1091 c 9,161 55,284 137,369 81,86 183,128 305,128 91,0 169,-24 233,-72 65,-47 115,-123 153,-228 z m -814,-401 h 817 c -11,-123 -42,-216 -94,-277 -79,-96 -181,-144 -307,-144 -114,0 -210,39 -287,115 -78,76 -121,178 -129,306 z"
     class="fil0" /><path
     style="fill:#1f1a17"
     inkscape:connector-curvature="0"
     id="path2010"
     d="m 75654.169,12121 241,36 c 10,74 38,129 84,163 61,46 145,69 252,69 115,0 203,-23 266,-69 63,-46 104,-111 126,-193 14,-51 19,-157 18,-318 -108,127 -243,191 -405,191 -201,0 -357,-72 -467,-218 -110,-145 -165,-319 -165,-522 0,-140 25,-268 75,-386 51,-119 125,-210 221,-274 96,-64 208,-97 338,-97 172,0 315,70 427,210 v -176 h 229 v 1265 c 0,227 -24,389 -70,484 -46,95 -120,170 -220,225 -101,55 -225,83 -372,83 -174,0 -315,-39 -423,-118 -107,-78 -159,-197 -155,-355 z m 205,-879 c 0,192 38,332 114,420 77,89 172,132 287,132 114,0 209,-43 286,-131 77,-88 116,-225 116,-413 0,-179 -39,-314 -119,-405 -79,-90 -175,-136 -287,-136 -110,0 -204,45 -282,134 -77,90 -115,223 -115,399 z"
     class="fil0" /><path
     style="fill:#1f1a17"
     inkscape:connector-curvature="0"
     id="path2012"
     d="m 77270.169,10265 v -285 h 248 v 285 z m 0,1735 v -1463 h 248 v 1463 z"
     class="fil0" /><path
     style="fill:#1f1a17"
     inkscape:connector-curvature="0"
     id="path2014"
     d="m 77896.169,12000 v -1463 h 223 v 208 c 107,-161 263,-242 465,-242 89,0 170,16 244,48 74,32 129,73 166,125 37,51 62,112 77,183 9,46 14,126 14,241 v 900 h -248 v -890 c 0,-101 -10,-177 -29,-227 -19,-50 -54,-90 -103,-120 -49,-30 -106,-45 -173,-45 -106,0 -196,34 -274,101 -76,67 -114,194 -114,382 v 799 z"
     class="fil0" /><path
     style="fill:#1f1a17"
     inkscape:connector-curvature="0"
     id="path2016"
     d="m 79465.169,12000 v -1463 h 223 v 208 c 108,-161 263,-242 466,-242 88,0 169,16 243,48 75,32 130,73 166,125 37,51 63,112 78,183 9,46 14,126 14,241 v 900 h -249 v -890 c 0,-101 -9,-177 -29,-227 -19,-50 -53,-90 -102,-120 -49,-30 -107,-45 -173,-45 -106,0 -197,34 -274,101 -77,67 -115,194 -115,382 v 799 z"
     class="fil0" /><path
     style="fill:#1f1a17"
     inkscape:connector-curvature="0"
     id="path2018"
     d="m 78630.169,41000 v -2020 h 758 c 154,0 278,21 371,61 94,41 167,104 219,189 53,85 80,174 80,267 0,86 -24,167 -71,243 -46,77 -117,138 -212,185 123,36 216,97 282,183 66,87 99,189 99,306 0,95 -20,183 -60,264 -40,82 -90,144 -149,188 -58,45 -132,78 -221,100 -88,23 -197,34 -326,34 z m 268,-1171 h 437 c 118,0 203,-8 254,-24 68,-20 119,-53 154,-100 34,-47 52,-106 52,-177 0,-67 -16,-126 -48,-177 -33,-51 -79,-86 -138,-104 -60,-19 -163,-29 -308,-29 h -403 z m 0,933 h 502 c 87,0 148,-4 182,-10 62,-11 113,-29 155,-55 41,-26 75,-63 102,-112 26,-50 40,-106 40,-171 0,-75 -20,-140 -58,-196 -39,-56 -92,-95 -161,-117 -68,-22 -167,-34 -295,-34 h -467 z"
     class="fil0" /><path
     style="fill:#1f1a17"
     inkscape:connector-curvature="0"
     id="path2020"
     d="m 80489.169,41000 v -1463 h 223 v 221 c 57,-103 110,-172 158,-205 48,-33 101,-50 159,-50 84,0 169,27 255,80 l -85,231 c -61,-36 -121,-54 -182,-54 -55,0 -103,16 -146,49 -44,33 -74,78 -92,136 -28,88 -42,184 -42,289 v 766 z"
     class="fil0" /><path
     style="fill:#1f1a17"
     inkscape:connector-curvature="0"
     id="path2022"
     d="m 82391.169,41000 v -215 c -114,166 -269,248 -465,248 -86,0 -167,-16 -241,-49 -75,-33 -131,-75 -167,-125 -37,-50 -62,-112 -77,-184 -10,-49 -15,-126 -15,-232 v -906 h 248 v 811 c 0,130 5,217 15,262 16,65 49,116 99,154 51,37 114,55 188,55 74,0 144,-18 209,-56 66,-39 112,-91 139,-156 27,-66 41,-162 41,-286 v -784 h 248 v 1463 z"
     class="fil0" /><path
     style="fill:#1f1a17"
     inkscape:connector-curvature="0"
     id="path2024"
     d="m 83956.169,40464 244,32 c -26,168 -95,299 -205,394 -109,95 -244,143 -404,143 -200,0 -361,-65 -483,-196 -122,-131 -183,-319 -183,-563 0,-158 27,-297 79,-415 53,-119 132,-207 239,-267 107,-59 224,-89 349,-89 159,0 290,41 390,121 101,81 166,194 195,343 l -241,37 c -23,-98 -64,-172 -122,-222 -58,-50 -129,-75 -212,-75 -125,0 -227,45 -305,135 -78,89 -117,231 -117,425 0,196 38,339 114,429 75,89 173,133 295,133 97,0 178,-30 243,-90 66,-59 107,-151 124,-275 z"
     class="fil0" /><path
     style="fill:#1f1a17"
     inkscape:connector-curvature="0"
     id="path2026"
     d="m 84413.169,41000 v -2020 h 247 v 725 c 116,-134 262,-202 439,-202 108,0 202,22 282,65 80,42 137,101 172,177 34,75 52,184 52,327 v 928 h -249 v -928 c 0,-123 -27,-214 -80,-270 -54,-56 -130,-85 -228,-85 -74,0 -143,19 -208,57 -65,38 -111,90 -138,155 -28,65 -42,156 -42,270 v 801 z"
     class="fil0" /><path
     style="fill:none;stroke:#1f1a17;stroke-width:176;stroke-dasharray:1764, 882"
     inkscape:connector-curvature="0"
     id="path2032"
     d="m 36746.169,83000 12005,-60021"
     class="fil1 str2" /><path
     style="fill:none;stroke:#1f1a17;stroke-width:176"
     inkscape:connector-curvature="0"
     id="path2040"
     d="m 22932.169,67992 h 1772 v -8436"
     class="fil1 str4" /><path
     style="fill:#1f1a17"
     inkscape:connector-curvature="0"
     id="path2042"
     d="m 25978.169,65004 776,-2020 h 288 l 827,2020 z m 371,-238 h 1123 l -437,-1151 c -65,-173 -113,-312 -143,-419 -25,125 -61,253 -109,386 z"
     class="fil0" /><path
     style="fill:#1f1a17"
     inkscape:connector-curvature="0"
     id="path2044"
     d="m 29546.169,63541 v 201 h -398 c 122,114 183,291 183,532 0,262 -67,454 -201,578 -133,123 -295,185 -487,185 -198,0 -362,-64 -490,-193 -129,-128 -193,-319 -193,-572 0,-259 66,-452 200,-577 134,-125 295,-188 483,-188 69,0 147,12 234,34 z m -907,172 c -120,0 -221,46 -303,141 -80,93 -121,233 -121,420 0,185 40,325 119,419 80,93 183,140 309,140 134,0 240,-49 318,-146 79,-98 118,-237 118,-415 0,-162 -37,-296 -109,-402 -71,-104 -182,-157 -331,-157 z"
     class="fil0" /><path
     style="fill:#1f1a17"
     inkscape:connector-curvature="0"
     id="path2046"
     d="m 22879.169,71119 776,-2020 h 288 l 827,2020 z m 371,-239 h 1123 l -437,-1150 c -65,-173 -113,-312 -143,-419 -25,125 -61,253 -109,386 z"
     class="fil0" /><path
     style="fill:#1f1a17"
     inkscape:connector-curvature="0"
     id="path2048"
     d="m 25910.169,69821 -178,143 c -113,-85 -219,-128 -317,-128 -81,0 -140,21 -177,65 -37,43 -56,90 -56,139 0,64 27,118 83,160 55,43 136,65 242,65 14,0 37,-1 69,-2 v 208 c -29,-1 -51,-1 -66,-1 -131,0 -222,25 -273,76 -51,50 -77,107 -77,171 0,65 26,120 77,164 52,45 113,67 184,67 129,0 250,-60 363,-180 l 178,150 c -147,156 -330,234 -548,234 -172,0 -300,-43 -385,-131 -84,-87 -127,-189 -127,-304 0,-167 81,-285 243,-354 -135,-77 -203,-182 -203,-316 0,-110 40,-207 120,-294 80,-87 203,-131 368,-131 190,0 349,67 480,199 z"
     class="fil0" /><path
     style="fill:none;stroke:#1f1a17;stroke-width:353"
     inkscape:connector-curvature="0"
     id="path2050"
     d="m 17704.169,83000 c 7000,-35038 17698,-88040 59037,-42045"
     class="fil1 str5" /><path
     style="fill:none;fill-rule:evenodd;stroke:#000000;stroke-width:396.875;stroke-linecap:butt;stroke-linejoin:miter;stroke-miterlimit:4;stroke-dasharray:none;stroke-opacity:1;marker-start:url(#Arrow1Mstart);marker-end:url(#Arrow1Mend);image-rendering:optimizeQuality;shape-rendering:geometricPrecision;text-rendering:geometricPrecision"
     d="M 17531.765,5260.1798 V 82889.793 H 87618.12"
     id="path1840"
     inkscape:connector-curvature="0" /><g
     transform="translate(5500.367,-4467.7523)"
     style="fill-rule:evenodd;image-rendering:optimizeQuality;shape-rendering:geometricPrecision;text-rendering:geometricPrecision"
     id="g6562"><g
       transform="translate(-4737.1559,-2770.7893)"
       id="g1195"><path
   class="fil0"
   d="m 6010.6764,19401.284 8.6507,-2021.012 274.0022,1.682 1053.8499,1590.776 7.1563,-1586.01 256.001,0.703 -8.6518,2020.011 -274.001,-0.681 -1053.8511,-1591.776 -7.1552,1587.009 z"
   id="path45"
   inkscape:connector-curvature="0"
   style="fill:#1f1a17" /><path
   class="fil0"
   d="m 7833.7182,19436.164 594.5748,-2086.692 198.001,0.77 -593.5747,2086.691 z"
   id="path47"
   inkscape:connector-curvature="0"
   style="fill:#1f1a17" /><path
   class="fil0"
   d="m 8803.6804,19403.037 6.2993,-1463.008 222.001,0.741 -1.7617,205.003 c 46.9175,-71.055 107.8512,-128.126 184.8,-172.215 75.9499,-43.089 162.9255,-64.19 259.9254,-64.302 109.0011,0.873 198.0278,23.769 267.0812,69.689 69.0522,44.92 117.1255,107.864 145.2196,188.831 116.8018,-170.135 267.7038,-255.311 453.7048,-254.527 145.001,0.831 256.048,41.702 334.141,121.612 77.094,80.91 116.238,204.865 115.434,372.866 l -3.833,1004.005 -247.002,-1.713 3.929,-921.005 c 0.885,-99.001 -7.199,-170.992 -23.25,-214.973 -16.05,-42.982 -45.092,-78.948 -87.123,-105.899 -42.03,-25.951 -92.046,-39.893 -149.046,-39.827 -103.002,-0.88 -187.962,33.218 -255.883,101.297 -67.9207,68.079 -103.794,177.121 -103.6185,328.121 l -4.0119,850.005 -248.001,-0.711 4.8945,-951.007 c -0.1279,-110 -20.2243,-192.976 -60.2882,-247.93 -40.0639,-54.953 -106.0976,-83.876 -198.0975,-83.77 -70,0.08 -133.979,18.156 -193.9371,54.226 -58.9582,36.069 -101.8954,90.118 -128.814,160.15 -27.9174,71.032 -40.7988,173.047 -41.6442,306.048 l -3.1177,759.005 z"
   id="path49"
   inkscape:connector-curvature="0"
   style="fill:#1f1a17" /><path
   class="fil0"
   d="m 11153.685,19405.305 7.299,-1463.009 222.001,0.742 -1.762,205.002 c 46.918,-71.055 107.851,-128.126 184.8,-172.215 75.95,-43.088 162.925,-65.19 259.926,-64.302 109.001,0.873 198.027,23.769 267.08,68.689 69.052,44.92 117.126,108.864 145.22,189.832 116.803,-170.136 267.704,-255.312 453.705,-254.528 145.001,0.831 256.047,40.702 334.141,121.612 77.095,80.91 116.239,204.865 115.433,371.866 l -3.832,1005.005 -247.002,-1.713 3.929,-921.005 c -0.116,-100 -7.198,-170.992 -23.25,-214.973 -16.051,-43.982 -45.091,-78.948 -87.123,-105.899 -42.031,-26.951 -92.046,-39.893 -149.047,-40.827 -103,0.12 -187.961,34.219 -255.882,102.298 -68.921,68.08 -103.794,177.12 -103.618,328.12 l -4.012,850.005 -248.001,-0.711 3.894,-951.005 c 0.871,-111.001 -19.224,-192.978 -59.289,-248.932 -40.064,-54.953 -106.096,-82.876 -198.096,-82.769 -70.002,-0.919 -133.981,17.155 -193.939,53.225 -58.957,37.069 -101.894,91.119 -128.812,161.15 -27.918,71.032 -41.799,173.049 -41.645,306.049 l -3.117,759.004 z"
   id="path51"
   inkscape:connector-curvature="0"
   style="fill:#1f1a17" /><path
   class="fil0"
   d="m 13358.514,18396.741 c 4.938,-53.005 26.878,-105.031 64.817,-157.075 57.908,-79.067 153.807,-166.179 286.697,-261.333 132.889,-95.155 210.818,-156.246 235.786,-184.275 34.956,-37.04 51.911,-76.06 51.866,-115.06 -0.05,-44 -15.094,-80.983 -47.128,-109.945 -32.033,-27.963 -80.05,-42.907 -142.05,-42.835 -61,0.07 -105.988,10.123 -135.963,32.158 -29.975,21.035 -54.926,63.064 -73.855,124.086 l -208.027,-22.758 c 26.881,-102.032 72.794,-177.085 138.738,-225.162 65.944,-48.077 160.918,-71.187 283.919,-70.33 139,-0.162 240.032,27.721 304.096,82.647 65.063,53.924 97.139,119.887 97.23,197.887 -0.91,77.001 -27.825,150.032 -82.745,219.096 -40.941,51.048 -135.85,129.158 -283.728,234.33 -75.935,56.088 -129.884,100.151 -162.845,133.189 l 532.003,2.382 -0.806,167.001 z"
   id="path53"
   inkscape:connector-curvature="0"
   style="fill:#1f1a17" /><text
   xml:space="preserve"
   style="font-style:normal;font-variant:normal;font-weight:normal;font-stretch:normal;font-size:4233.33px;line-height:125%;font-family:Arial;-inkscape-font-specification:Arial;letter-spacing:0px;word-spacing:0px;fill:#000000;fill-opacity:1;stroke:none;stroke-width:264.583px;stroke-linecap:butt;stroke-linejoin:miter;stroke-opacity:1"
   x="3004.7444"
   y="19407.434"
   id="text1186"><tspan
     sodipodi:role="line"
     id="tspan1184"
     x="3004.7444"
     y="19407.434"
     style="font-size:2822.22px;stroke-width:264.583px">in</tspan></text>
</g><path
       class="fil0"
       d="m -2598.0186,15050.46 v 215.874 h -427.4517 c 131.028,122.436 196.5419,312.533 196.5419,571.366 0,281.389 -71.9579,488.672 -215.8738,620.774 -142.842,133.175 -316.8299,198.69 -523.0377,198.69 -212.6519,0 -388.7889,-68.736 -526.2608,-207.281 -138.5459,-137.473 -207.2818,-342.608 -207.2818,-614.33 0,-278.166 71.9579,-485.449 214.7999,-619.697 143.9158,-134.251 316.8308,-200.839 518.7427,-200.839 74.1058,0 157.8779,11.813 251.3159,35.443 z m -974.1174,184.728 c -128.8799,0 -237.3538,50.478 -324.3488,151.433 -86.994,99.881 -131.0279,251.316 -131.0279,451.079 0,199.766 42.9599,349.052 127.8058,450.008 85.9211,99.882 196.543,151.434 331.867,151.434 143.9159,0 257.7597,-52.627 341.5317,-157.877 84.8461,-105.252 126.7309,-253.465 126.7309,-445.712 0,-173.988 -38.6629,-317.905 -115.9909,-430.674 -77.328,-112.769 -196.5418,-169.691 -356.5678,-169.691 z"
       id="path1838"
       inkscape:connector-curvature="0"
       style="fill:#1f1a17;fill-rule:evenodd;stroke-width:1;image-rendering:optimizeQuality;shape-rendering:geometricPrecision;text-rendering:geometricPrecision" /></g></svg>
