<?xml version="1.0" encoding="UTF-8" standalone="no"?>
<!-- Generated by graphviz version 2.43.0 (0)
 -->

<!-- Title: %3 Pages: 1 -->

<svg
   width="720pt"
   height="253pt"
   viewBox="0.00 0.00 720.00 252.94"
   version="1.1"
   id="svg30"
   sodipodi:docname="01_fem_historie.svg"
   inkscape:version="1.4.2 (f4327f4, 2025-05-13)"
   inkscape:export-filename="01_fem_historie.en.png"
   inkscape:export-xdpi="300"
   inkscape:export-ydpi="300"
   xmlns:inkscape="http://www.inkscape.org/namespaces/inkscape"
   xmlns:sodipodi="http://sodipodi.sourceforge.net/DTD/sodipodi-0.dtd"
   xmlns="http://www.w3.org/2000/svg"
   xmlns:svg="http://www.w3.org/2000/svg">
  <defs
     id="defs30" />
  <sodipodi:namedview
     id="namedview30"
     pagecolor="#ffffff"
     bordercolor="#000000"
     borderopacity="0.25"
     inkscape:showpageshadow="2"
     inkscape:pageopacity="0.0"
     inkscape:pagecheckerboard="0"
     inkscape:deskcolor="#d1d1d1"
     inkscape:document-units="pt"
     inkscape:zoom="1.3037281"
     inkscape:cx="380.44742"
     inkscape:cy="122.34146"
     inkscape:window-width="1920"
     inkscape:window-height="1057"
     inkscape:window-x="1912"
     inkscape:window-y="-8"
     inkscape:window-maximized="1"
     inkscape:current-layer="svg30" />
  <g
     id="graph0"
     class="graph"
     transform="scale(0.57 0.57) rotate(0) translate(4 439)">
    <title
       id="title1">%3</title>
    <polygon
       fill="white"
       stroke="transparent"
       points="-4,4 -4,-439 1257,-439 1257,4 -4,4"
       id="polygon1" />
    <!-- Hrennikoff -->
    <g
       id="node1"
       class="node">
      <title
         id="title2">Hrennikoff</title>
      <path
         fill="none"
         stroke="black"
         d="M119,-429.5C119,-429.5 12,-429.5 12,-429.5 6,-429.5 0,-423.5 0,-417.5 0,-417.5 0,-405.5 0,-405.5 0,-399.5 6,-393.5 12,-393.5 12,-393.5 119,-393.5 119,-393.5 125,-393.5 131,-399.5 131,-405.5 131,-405.5 131,-417.5 131,-417.5 131,-423.5 125,-429.5 119,-429.5"
         id="path2" />
      <text
         text-anchor="middle"
         x="65.5"
         y="-414.9"
         font-family="Arial"
         font-size="12.00"
         id="text2">Elastic bar models by</text>
      <text
         text-anchor="middle"
         x="65.5"
         y="-401.9"
         font-family="Arial"
         font-size="12.00"
         id="text3">Hrennikoff, 1941</text>
    </g>
    <!-- 1962 -->
    <g
       id="node7"
       class="node">
      <title
         id="title3">1962</title>
      <path
         fill="none"
         stroke="black"
         d="M794.5,-345C794.5,-345 408.5,-345 408.5,-345 402.5,-345 396.5,-339 396.5,-333 396.5,-333 396.5,-297 396.5,-297 396.5,-291 402.5,-285 408.5,-285 408.5,-285 794.5,-285 794.5,-285 800.5,-285 806.5,-291 806.5,-297 806.5,-297 806.5,-333 806.5,-333 806.5,-339 800.5,-345 794.5,-345"
         id="path3" />
      <text
         text-anchor="middle"
         x="601.5"
         y="-331.4"
         font-family="Arial"
         font-size="12.00"
         id="text4">- Transformation of PDEs by variational method or Ritz–Galerkin approach</text>
      <text
         text-anchor="middle"
         x="601.5"
         y="-318.4"
         font-family="Arial"
         font-size="12.00"
         id="text5">  Besseling/Melosh/de Veubeke, ca. 1962</text>
      <text
         text-anchor="middle"
         x="601.5"
         y="-305.4"
         font-family="Arial"
         font-size="12.00"
         id="text6">- First conference on computational mechanics, 1963</text>
      <text
         text-anchor="middle"
         x="601.5"
         y="-292.4"
         font-family="Arial"
         font-size="12.00"
         id="text7">- First FEM textbook by Zienkiewicz/Cheung, 1967</text>
    </g>
    <!-- Hrennikoff&#45;&gt;1962 -->
    <g
       id="edge1"
       class="edge">
      <title
         id="title7">Hrennikoff-&gt;1962</title>
      <path
         fill="none"
         stroke="black"
         d="M122.98,-393.46C130.52,-391.48 138.17,-389.6 145.5,-388 223.43,-370.95 309.69,-356.28 386.03,-344.71"
         id="path7" />
      <polygon
         fill="black"
         stroke="black"
         points="386.88,-348.12 396.25,-343.17 385.84,-341.19 386.88,-348.12"
         id="polygon7" />
    </g>
    <!-- Courant -->
    <g
       id="node2"
       class="node">
      <title
         id="title8">Courant</title>
      <path
         fill="none"
         stroke="black"
         d="M365,-435C365,-435 172,-435 172,-435 166,-435 160,-429 160,-423 160,-423 160,-400 160,-400 160,-394 166,-388 172,-388 172,-388 365,-388 365,-388 371,-388 377,-394 377,-400 377,-400 377,-423 377,-423 377,-429 371,-435 365,-435"
         id="path8" />
      <text
         text-anchor="middle"
         x="268.5"
         y="-421.4"
         font-family="Arial"
         font-size="12.00"
         id="text8">Piecewise approaches to solve PDEs</text>
      <text
         text-anchor="middle"
         x="268.5"
         y="-408.4"
         font-family="Arial"
         font-size="12.00"
         id="text9">Courant, 1943</text>
      <text
         text-anchor="middle"
         x="268.5"
         y="-395.4"
         font-family="Arial"
         font-size="12.00"
         id="text10">Prager/Synge, 1947</text>
    </g>
    <!-- Courant&#45;&gt;1962 -->
    <g
       id="edge2"
       class="edge">
      <title
         id="title10">Courant-&gt;1962</title>
      <path
         fill="none"
         stroke="black"
         d="M347.84,-387.98C390.13,-375.98 442.88,-361.01 489.3,-347.84"
         id="path10" />
      <polygon
         fill="black"
         stroke="black"
         points="490.44,-351.16 499.1,-345.06 488.53,-344.42 490.44,-351.16"
         id="polygon10" />
    </g>
    <!-- Argyris -->
    <g
       id="node3"
       class="node">
      <title
         id="title11">Argyris</title>
      <path
         fill="none"
         stroke="black"
         d="M589,-435C589,-435 418,-435 418,-435 412,-435 406,-429 406,-423 406,-423 406,-400 406,-400 406,-394 412,-388 418,-388 418,-388 589,-388 589,-388 595,-388 601,-394 601,-400 601,-400 601,-423 601,-423 601,-429 595,-435 589,-435"
         id="path11" />
      <text
         text-anchor="middle"
         x="503.5"
         y="-421.4"
         font-family="Arial"
         font-size="12.00"
         id="text11">Force and displacement methods</text>
      <text
         text-anchor="middle"
         x="503.5"
         y="-408.4"
         font-family="Arial"
         font-size="12.00"
         id="text12">for frameworks, matrix formulation</text>
      <text
         text-anchor="middle"
         x="503.5"
         y="-395.4"
         font-family="Arial"
         font-size="12.00"
         id="text13">Argyris, 1954</text>
    </g>
    <!-- Argyris&#45;&gt;1962 -->
    <g
       id="edge3"
       class="edge">
      <title
         id="title13">Argyris-&gt;1962</title>
      <path
         fill="none"
         stroke="black"
         d="M527.22,-387.62C538.2,-377.04 551.51,-364.21 563.81,-352.34"
         id="path13" />
      <polygon
         fill="black"
         stroke="black"
         points="566.54,-354.57 571.31,-345.11 561.68,-349.53 566.54,-354.57"
         id="polygon13" />
    </g>
    <!-- Computer -->
    <g
       id="node4"
       class="node">
      <title
         id="title14">Computer</title>
      <path
         fill="none"
         stroke="black"
         d="M759,-429.5C759,-429.5 642,-429.5 642,-429.5 636,-429.5 630,-423.5 630,-417.5 630,-417.5 630,-405.5 630,-405.5 630,-399.5 636,-393.5 642,-393.5 642,-393.5 759,-393.5 759,-393.5 765,-393.5 771,-399.5 771,-405.5 771,-405.5 771,-417.5 771,-417.5 771,-423.5 765,-429.5 759,-429.5"
         id="path14" />
      <text
         text-anchor="middle"
         x="700.5"
         y="-414.9"
         font-family="Arial"
         font-size="12.00"
         id="text14">1950s</text>
      <text
         text-anchor="middle"
         x="700.5"
         y="-401.9"
         font-family="Arial"
         font-size="12.00"
         id="text15">Computer development</text>
    </g>
    <!-- Computer&#45;&gt;1962 -->
    <g
       id="edge4"
       class="edge">
      <title
         id="title15">Computer-&gt;1962</title>
      <path
         fill="none"
         stroke="black"
         d="M682.34,-393.17C670.36,-381.73 654.22,-366.33 639.52,-352.29"
         id="path15" />
      <polygon
         fill="black"
         stroke="black"
         points="641.64,-349.47 631.99,-345.1 636.8,-354.54 641.64,-349.47"
         id="polygon15" />
    </g>
    <!-- Turner -->
    <g
       id="node5"
       class="node">
      <title
         id="title16">Turner</title>
      <path
         fill="none"
         stroke="black"
         d="M1044.5,-435C1044.5,-435 812.5,-435 812.5,-435 806.5,-435 800.5,-429 800.5,-423 800.5,-423 800.5,-400 800.5,-400 800.5,-394 806.5,-388 812.5,-388 812.5,-388 1044.5,-388 1044.5,-388 1050.5,-388 1056.5,-394 1056.5,-400 1056.5,-400 1056.5,-423 1056.5,-423 1056.5,-429 1050.5,-435 1044.5,-435"
         id="path16" />
      <text
         text-anchor="middle"
         x="928.5"
         y="-421.4"
         font-family="Arial"
         font-size="12.00"
         id="text16">First engineering derivation of plate elements</text>
      <text
         text-anchor="middle"
         x="928.5"
         y="-408.4"
         font-family="Arial"
         font-size="12.00"
         id="text17">Turner/Clough/Martin/Topp,</text>
      <text
         text-anchor="middle"
         x="928.5"
         y="-395.4"
         font-family="Arial"
         font-size="12.00"
         id="text18">1953–1956</text>
    </g>
    <!-- Turner&#45;&gt;1962 -->
    <g
       id="edge5"
       class="edge">
      <title
         id="title18">Turner-&gt;1962</title>
      <path
         fill="none"
         stroke="black"
         d="M850.59,-387.98C809.06,-375.98 757.26,-361.01 711.68,-347.84"
         id="path18" />
      <polygon
         fill="black"
         stroke="black"
         points="712.63,-344.47 702.05,-345.06 710.69,-351.2 712.63,-344.47"
         id="polygon18" />
    </g>
    <!-- Clough1960 -->
    <g
       id="node6"
       class="node">
      <title
         id="title19">Clough1960</title>
      <path
         fill="none"
         stroke="black"
         d="M1241,-429.5C1241,-429.5 1098,-429.5 1098,-429.5 1092,-429.5 1086,-423.5 1086,-417.5 1086,-417.5 1086,-405.5 1086,-405.5 1086,-399.5 1092,-393.5 1098,-393.5 1098,-393.5 1241,-393.5 1241,-393.5 1247,-393.5 1253,-399.5 1253,-405.5 1253,-405.5 1253,-417.5 1253,-417.5 1253,-423.5 1247,-429.5 1241,-429.5"
         id="path19" />
      <text
         text-anchor="middle"
         x="1169.5"
         y="-408.4"
         font-family="Arial"
         font-size="12.00"
         id="text19">Term 'FEM' by Clough, 1960</text>
    </g>
    <!-- Clough1960&#45;&gt;1962 -->
    <g
       id="edge6"
       class="edge">
      <title
         id="title20">Clough1960-&gt;1962</title>
      <path
         fill="none"
         stroke="black"
         d="M1098.17,-393.48C1089.22,-391.53 1080.16,-389.65 1071.5,-388 988.59,-372.15 896.93,-357.48 816.74,-345.57"
         id="path20" />
      <polygon
         fill="black"
         stroke="black"
         points="816.92,-342.06 806.51,-344.06 815.89,-348.98 816.92,-342.06"
         id="polygon20" />
    </g>
    <!-- Stormy -->
    <g
       id="node8"
       class="node">
      <title
         id="title21">Stormy</title>
      <text
         text-anchor="middle"
         x="601.5"
         y="-220.9"
         font-family="Arial"
         font-size="12.00"
         id="text21">Rapid development of the method</text>
    </g>
    <!-- 1962&#45;&gt;Stormy -->
    <g
       id="edge7"
       class="edge">
      <title
         id="title22">1962-&gt;Stormy</title>
      <path
         fill="none"
         stroke="black"
         stroke-dasharray="1,5"
         d="M601.5,-284.86C601.5,-274.4 601.5,-262.65 601.5,-252.35"
         id="path22" />
      <polygon
         fill="black"
         stroke="black"
         points="605,-252.25 601.5,-242.25 598,-252.25 605,-252.25"
         id="polygon22" />
    </g>
    <!-- 1965 -->
    <g
       id="node9"
       class="node">
      <title
         id="title23">1965</title>
      <path
         fill="none"
         stroke="black"
         d="M737.5,-163C737.5,-163 465.5,-163 465.5,-163 459.5,-163 453.5,-157 453.5,-151 453.5,-151 453.5,-102 453.5,-102 453.5,-96 459.5,-90 465.5,-90 465.5,-90 737.5,-90 737.5,-90 743.5,-90 749.5,-96 749.5,-102 749.5,-102 749.5,-151 749.5,-151 749.5,-157 743.5,-163 737.5,-163"
         id="path23" />
      <text
         text-anchor="middle"
         x="601.5"
         y="-149.4"
         font-family="Arial"
         font-size="12.00"
         id="text23">from 1965 until today:</text>
      <text
         text-anchor="middle"
         x="601.5"
         y="-136.4"
         font-family="Arial"
         font-size="12.00"
         id="text24">- Generalization and simplification of the method</text>
      <text
         text-anchor="middle"
         x="601.5"
         y="-123.4"
         font-family="Arial"
         font-size="12.00"
         id="text25">- New applications (fluid flow, heat conduction,</text>
      <text
         text-anchor="middle"
         x="601.5"
         y="-110.4"
         font-family="Arial"
         font-size="12.00"
         id="text26">  magnetism, multiphysics)</text>
      <text
         text-anchor="middle"
         x="601.5"
         y="-97.4"
         font-family="Arial"
         font-size="12.00"
         id="text27">- Processes (forming, welding, injection molding etc.)</text>
    </g>
    <!-- Stormy&#45;&gt;1965 -->
    <g
       id="edge8"
       class="edge">
      <title
         id="title27">Stormy-&gt;1965</title>
      <path
         fill="none"
         stroke="black"
         d="M601.5,-205.93C601.5,-196.71 601.5,-184.86 601.5,-173.17"
         id="path27" />
      <polygon
         fill="black"
         stroke="black"
         points="605,-173.02 601.5,-163.02 598,-173.02 605,-173.02"
         id="polygon27" />
    </g>
    <!-- Today -->
    <g
       id="node10"
       class="node">
      <title
         id="title28">Today</title>
      <path
         fill="none"
         stroke="black"
         d="M675,-47C675,-47 528,-47 528,-47 522,-47 516,-41 516,-35 516,-35 516,-12 516,-12 516,-6 522,0 528,0 528,0 675,0 675,0 681,0 687,-6 687,-12 687,-12 687,-35 687,-35 687,-41 681,-47 675,-47"
         id="path28" />
      <text
         text-anchor="middle"
         x="601.5"
         y="-33.4"
         font-family="Arial"
         font-size="12.00"
         id="text28">Current state:</text>
      <text
         text-anchor="middle"
         x="601.5"
         y="-20.4"
         font-family="Arial"
         font-size="12.00"
         id="text29">Virtual product development /</text>
      <text
         text-anchor="middle"
         x="601.5"
         y="-7.4"
         font-family="Arial"
         font-size="12.00"
         id="text30">CAD + MBS + FEM = CAE</text>
    </g>
    <!-- 1965&#45;&gt;Today -->
    <g
       id="edge9"
       class="edge">
      <title
         id="title30">1965-&gt;Today</title>
      <path
         fill="none"
         stroke="black"
         d="M601.5,-89.89C601.5,-79.35 601.5,-67.87 601.5,-57.5"
         id="path30" />
      <polygon
         fill="black"
         stroke="black"
         points="605,-57.19 601.5,-47.19 598,-57.19 605,-57.19"
         id="polygon30" />
    </g>
  </g>
</svg>
